<svg width="14" height="14" viewBox="0 0 14 14" fill="none" xmlns="http://www.w3.org/2000/svg">
<g clip-path="url(#clip0_1242_8724)">
<path fill-rule="evenodd" clip-rule="evenodd" d="M9.02565 1.43313C9.49541 0.963371 10.1325 0.699463 10.7969 0.699463C12.1803 0.699463 13.3018 1.82094 13.3018 3.20436C13.3018 3.8687 13.0379 4.50583 12.5681 4.97559L4.39801 13.1457C4.29956 13.2442 4.16602 13.2995 4.02678 13.2995H1.22678C0.936833 13.2995 0.701782 13.0644 0.701782 12.7745V9.97446C0.701782 9.83522 0.757095 9.70169 0.855551 9.60323L9.02565 1.43313ZM10.7969 1.74946C10.411 1.74946 10.041 1.90275 9.76811 2.17559L9.49424 2.44946L11.5518 4.507L11.8257 4.23313C12.0985 3.96028 12.2518 3.59022 12.2518 3.20436C12.2518 2.40084 11.6004 1.74946 10.7969 1.74946ZM10.8093 5.24946L8.75178 3.19192L1.75178 10.1919V12.2495H3.80932L10.8093 5.24946Z" fill="white" style="fill:white;fill-opacity:1;"/>
</g>
<defs>
<clipPath id="clip0_1242_8724">
<rect width="14" height="14" fill="white" style="fill:white;fill-opacity:1;"/>
</clipPath>
</defs>
</svg>
