<svg width="65" height="22" viewBox="0 0 65 22" fill="none" xmlns="http://www.w3.org/2000/svg">
<path d="M61.0937 15.5432C60.8877 15.5432 60.7302 15.3857 60.7302 15.1798V4.38566C60.7302 4.17971 60.8877 4.02222 61.0937 4.02222H64.3888C64.5948 4.02222 64.7523 4.17971 64.7523 4.38566V15.1798C64.7523 15.3857 64.5948 15.5432 64.3888 15.5432H61.0937Z" fill="white" style="fill:white;fill-opacity:1;"/>
<path d="M54.8648 15.531C54.6588 15.531 54.5014 15.3735 54.5014 15.1676V11.7028C54.5014 11.4968 54.3439 11.3394 54.1379 11.3394H52.2117C52.0057 11.3394 51.8483 11.4968 51.8483 11.7028V15.1676C51.8483 15.3735 51.6908 15.531 51.4848 15.531H48.1291C47.9231 15.531 47.7656 15.3735 47.7656 15.1676V4.32499C47.7656 4.11904 47.9231 3.96155 48.1291 3.96155H51.4848C51.6908 3.96155 51.8483 4.11904 51.8483 4.32499V7.88669C51.8483 8.09264 52.0057 8.25013 52.2117 8.25013H54.1379C54.3439 8.25013 54.5014 8.09264 54.5014 7.88669V4.32499C54.5014 4.11904 54.6588 3.96155 54.8648 3.96155H58.2205C58.4265 3.96155 58.584 4.11904 58.584 4.32499V15.1676C58.584 15.3735 58.4265 15.531 58.2205 15.531H54.8648Z" fill="white" style="fill:white;fill-opacity:1;"/>
<path d="M42.1897 12.2601C42.7106 12.2601 43.3284 12.0905 43.8009 11.7028C43.9342 11.5938 44.237 11.5574 44.3582 11.6786L46.2602 13.3867C46.4298 13.5321 46.4419 13.7381 46.2844 13.8834C45.2304 14.9132 43.813 15.5552 42.2139 15.5552C39.0277 15.5552 36.4231 12.9506 36.4231 9.76445C36.4231 6.55408 39.0277 3.96155 42.2139 3.96155C43.7888 3.96155 45.1941 4.57939 46.2481 5.60914C46.4055 5.75451 46.3934 5.96046 46.2481 6.10584L44.2491 8.01995C44.1159 8.14109 43.8615 8.14109 43.7282 8.03206C43.2194 7.63228 42.6258 7.4869 42.1654 7.4869C41.3659 7.4869 40.009 8.17744 40.009 9.87349C40.009 11.5816 41.2447 12.2601 42.1897 12.2601Z" fill="white" style="fill:white;fill-opacity:1;"/>
<path d="M36.0848 4.08276C36.2908 4.08276 36.4483 4.24025 36.4483 4.4462L36.4604 7.19622C36.4604 7.40217 36.3029 7.55966 36.0969 7.55966L32.8623 7.58389C32.6564 7.58389 32.4989 7.74138 32.4989 7.94733V15.1555C32.4989 15.3494 32.3293 15.519 32.1355 15.519L28.9008 15.4826C28.6949 15.4826 28.5374 15.3251 28.5374 15.1192L28.5132 7.94733C28.5132 7.74138 28.3557 7.58389 28.1497 7.58389L24.9394 7.53543C24.7334 7.53543 24.5759 7.37794 24.5759 7.17199L24.6002 4.4462C24.6002 4.24025 24.7576 4.08276 24.9636 4.08276H36.0848Z" fill="white" style="fill:white;fill-opacity:1;"/>
<path d="M0.4967 15.6224C0.290751 15.6224 0 15.4649 0 15.259L0.0121145 4.45272C0.0121145 4.25889 0.193834 4.08928 0.399783 4.08928C5.40312 4.05294 10.7578 3.50778 10.7578 9.96488C10.7578 15.7436 6.89322 15.6345 0.4967 15.6224ZM4.44607 7.38446C4.22801 7.37235 4.08263 7.52984 4.08263 7.73579L4.10686 11.9396C4.10686 12.1334 4.21589 12.2788 4.39761 12.2909C6.20269 12.3878 6.86899 11.3217 6.86899 9.83162C6.86899 8.70496 6.61459 7.49349 4.44607 7.38446Z" fill="white" style="fill:white;fill-opacity:1;"/>
<path d="M17.7724 12.6298C15.8872 14.2544 16.8898 16.6031 17.6267 17.5743L19.2558 16.3562C17.7684 16.2178 17.3775 13.4253 17.7724 12.6298Z" fill="#25DA83" style="fill:#25DA83;fill:color(display-p3 0.1459 0.8542 0.5142);fill-opacity:1;"/>
<path fill-rule="evenodd" clip-rule="evenodd" d="M14.9394 14.4307C16.1457 14.4067 17.1634 13.6081 17.5139 12.5228C17.952 13.4416 18.902 14.0663 19.9988 14.0445C21.5031 14.0146 22.7141 12.7801 22.7038 11.2871C22.6963 10.2231 22.0705 9.31491 21.1669 8.89175C21.8668 8.38897 22.321 7.56965 22.3146 6.65288C22.3042 5.15992 21.0763 3.97387 19.572 4.00377C18.6003 4.02308 17.751 4.545 17.2742 5.31452C16.7985 4.51251 15.9125 3.98368 14.9018 4.00377C13.3975 4.03366 12.1865 5.26818 12.1969 6.76114C12.2048 7.892 12.9112 8.84677 13.9071 9.23039C12.8982 9.64512 12.1889 10.6375 12.1968 11.7816C12.2072 13.2745 13.4351 14.4606 14.9394 14.4307Z" fill="#25DA83" style="fill:#25DA83;fill:color(display-p3 0.1459 0.8542 0.5142);fill-opacity:1;"/>
</svg>
