<svg width="40" height="40" viewBox="0 0 40 40" fill="none" xmlns="http://www.w3.org/2000/svg">
<circle cx="20" cy="20" r="20" fill="#383838" style="fill:#383838;fill:color(display-p3 0.2214 0.2214 0.2214);fill-opacity:1;"/>
<path fill-rule="evenodd" clip-rule="evenodd" d="M26.5508 13.022C26.5908 13.09 26.6608 13.1385 26.7508 13.1385C29.1508 13.1385 31.1108 15.042 31.1108 17.3727V23.1413C31.1108 25.472 29.1508 27.3755 26.7508 27.3755H15.4708C13.0608 27.3755 11.1108 25.472 11.1108 23.1413V17.3727C11.1108 15.042 13.0608 13.1385 15.4708 13.1385C15.5508 13.1385 15.6308 13.0997 15.6608 13.022L15.7208 12.9055C15.7553 12.8349 15.7907 12.7624 15.8266 12.6889C16.0825 12.165 16.3655 11.5854 16.5408 11.2448C17.0008 10.3708 17.7808 9.8852 18.7508 9.87549H23.4608C24.4308 9.8852 25.2208 10.3708 25.6808 11.2448C25.8383 11.5507 26.0783 12.0434 26.3096 12.5184C26.3573 12.6164 26.4047 12.7136 26.4508 12.8083L26.5508 13.022ZM25.8203 16.7513C25.8203 17.2369 26.2203 17.6253 26.7203 17.6253C27.2203 17.6253 27.6303 17.2369 27.6303 16.7513C27.6303 16.2657 27.2203 15.8675 26.7203 15.8675C26.2203 15.8675 25.8203 16.2657 25.8203 16.7513ZM19.3807 18.2564C19.8507 17.7999 20.4607 17.5571 21.1107 17.5571C21.7607 17.5571 22.3707 17.7999 22.8307 18.2467C23.2907 18.6934 23.5407 19.2858 23.5407 19.917C23.5307 21.2184 22.4507 22.2769 21.1107 22.2769C20.4607 22.2769 19.8507 22.0341 19.3907 21.5874C18.9307 21.1407 18.6807 20.5483 18.6807 19.917V19.9073C18.6707 19.2955 18.9207 18.7031 19.3807 18.2564ZM23.8804 22.617C23.1704 23.3065 22.1904 23.7338 21.1104 23.7338C20.0604 23.7338 19.0804 23.3356 18.3304 22.617C17.5904 21.8886 17.1804 20.9369 17.1804 19.9172C17.1704 18.9072 17.5804 17.9555 18.3204 17.2271C19.0704 16.4988 20.0604 16.1006 21.1104 16.1006C22.1604 16.1006 23.1504 16.4988 23.8904 17.2174C24.6304 17.9458 25.0404 18.9072 25.0404 19.9172C25.0304 20.9758 24.5904 21.9275 23.8804 22.617Z" fill="#595959" style="fill:#595959;fill:color(display-p3 0.3477 0.3477 0.3477);fill-opacity:1;"/>
</svg>
