<svg width="75" height="69" viewBox="0 0 75 69" fill="none" xmlns="http://www.w3.org/2000/svg">
<path d="M65.2892 10.4563C67.0769 9.80141 67.8784 7.973 68.1867 7.06888C68.3715 6.52689 68.6181 6.73013 68.8032 7.47537C69.2346 9.71107 70.8375 10.1176 71.454 10.5241C72.2553 10.9305 71.6388 10.9644 71.3306 11.1338C71.084 11.2693 70.6114 11.5019 70.4059 11.652C69.4314 12.3441 68.9438 13.6363 68.8647 14.1147C68.7414 14.86 68.4662 14.9955 68.2482 14.2502C67.6933 12.3533 66.5221 11.337 65.5974 11.1338C64.6111 10.9305 64.7344 10.6596 65.2892 10.4563Z" fill="#4C4C4C" style="fill:#4C4C4C;fill:color(display-p3 0.2988 0.2982 0.2982);fill-opacity:1;"/>
<path d="M62.1145 3.61925C63.136 3.2918 63.594 2.3776 63.7702 1.92554C63.8758 1.65454 64.0167 1.75616 64.1224 2.12878C64.369 3.24663 65.2849 3.44988 65.6372 3.65313C66.0951 3.85637 65.7428 3.87331 65.5667 3.95799C65.4258 4.02574 65.1557 4.14203 65.0383 4.21711C64.4815 4.56316 64.2028 5.20926 64.1576 5.44846C64.0872 5.82108 63.9299 5.88883 63.8054 5.51621C63.4883 4.56773 62.819 4.05962 62.2906 3.95799C61.727 3.85637 61.7974 3.72087 62.1145 3.61925Z" fill="#4C4C4C" style="fill:#4C4C4C;fill:color(display-p3 0.2988 0.2982 0.2982);fill-opacity:1;"/>
<path d="M5.65758 38.2483C8.4669 37.266 9.72626 34.5234 10.2108 33.1672C10.5012 32.3542 10.8887 32.6591 11.1795 33.7769C11.8575 37.1305 14.3763 37.7402 15.3451 38.3499C16.6043 38.9597 15.6355 39.0105 15.1512 39.2645C14.7637 39.4678 14.021 39.8167 13.6981 40.0419C12.1668 41.08 11.4006 43.0183 11.2762 43.7359C11.0825 44.8538 10.6501 45.057 10.3075 43.9392C9.43548 41.0938 7.59504 39.5694 6.14195 39.2645C4.59198 38.9597 4.78572 38.5532 5.65758 38.2483Z" fill="#4C4C4C" style="fill:#4C4C4C;fill:color(display-p3 0.2988 0.2982 0.2982);fill-opacity:1;"/>
<path d="M0.365075 28.4927C1.89743 28.0015 2.58435 26.6302 2.84864 25.9521C3.00707 25.5456 3.21843 25.698 3.37703 26.257C3.74683 27.9337 5.12075 28.2386 5.64915 28.5435C6.33599 28.8484 5.80759 28.8738 5.54339 29.0008C5.33203 29.1024 4.92693 29.2768 4.75079 29.3895C3.91556 29.9085 3.49762 30.8777 3.42979 31.2365C3.32411 31.7954 3.08825 31.897 2.90139 31.3381C2.42574 29.9154 1.42187 29.1532 0.629275 29.0008C-0.216166 28.8484 -0.110486 28.6451 0.365075 28.4927Z" fill="#4C4C4C" style="fill:#4C4C4C;fill:color(display-p3 0.2988 0.2982 0.2982);fill-opacity:1;"/>
<path d="M48.3309 40.1862C43.9274 49.6066 52.1974 57.088 56.8828 59.6512L61.0307 52.2328C54.9361 54.1433 48.2486 43.9292 48.3309 40.1862Z" fill="#3B3B3B" style="fill:#3B3B3B;fill:color(display-p3 0.2300 0.2300 0.2300);fill-opacity:1;"/>
<path fill-rule="evenodd" clip-rule="evenodd" d="M41.552 52.9183C45.7207 50.9881 48.0524 46.6573 47.7796 42.1696C51.0052 44.9352 55.551 45.7729 59.5169 43.9366C65.0182 41.3893 67.3205 34.6612 64.659 28.909C62.7897 24.8687 58.9686 22.3845 54.9534 22.1465C57.024 18.9804 57.4345 14.7501 55.6747 10.9465C53.0132 5.19435 46.396 2.59628 40.8947 5.14357C37.042 6.92749 34.7583 10.7619 34.6496 14.8755C31.4253 12.1245 26.8908 11.2946 22.9337 13.1269C17.4324 15.6742 15.1302 22.4022 17.7916 28.1544C19.7723 32.4353 23.9439 34.9692 28.216 34.9355C25.5357 38.1693 24.8235 42.9039 26.772 47.1153C29.4335 52.8675 36.0507 55.4656 41.552 52.9183Z" fill="#3B3B3B" style="fill:#3B3B3B;fill:color(display-p3 0.2300 0.2300 0.2300);fill-opacity:1;"/>
</svg>
