<svg width="73" height="77" viewBox="0 0 73 77" fill="none" xmlns="http://www.w3.org/2000/svg">
<path d="M63.2618 3.80415C63.2288 3.18496 62.384 3.03341 62.1245 3.60011L60.5481 7.04262C60.4559 7.24407 60.2597 7.37915 60.0386 7.39343L56.2628 7.63725C55.6416 7.67736 55.4809 8.51887 56.0461 8.77184L59.4817 10.3095C59.6829 10.3995 59.8163 10.5937 59.828 10.8138L60.0288 14.5752C60.0619 15.1944 60.9066 15.3459 61.1661 14.7792L62.7425 11.3367C62.8348 11.1353 63.031 11.0002 63.2521 10.9859L67.0279 10.7421C67.6491 10.702 67.8098 9.86048 67.2445 9.60751L63.8089 8.06988C63.6077 7.97983 63.4744 7.78562 63.4626 7.56552L63.2618 3.80415Z" fill="#4C4C4C" style="fill:#4C4C4C;fill:color(display-p3 0.2988 0.2982 0.2982);fill-opacity:1;"/>
<ellipse cx="1.4833" cy="1.48765" rx="1.4833" ry="1.48765" transform="matrix(-1 0 0 1 68.948 17.671)" fill="#4C4C4C" style="fill:#4C4C4C;fill:color(display-p3 0.2988 0.2982 0.2982);fill-opacity:1;"/>
<ellipse cx="28.1937" cy="28.2545" rx="28.1937" ry="28.2545" transform="matrix(0.931218 0.364464 -0.362616 0.931938 20.491 3.78647)" fill="#3B3B3B" style="fill:#3B3B3B;fill:color(display-p3 0.2300 0.2300 0.2300);fill-opacity:1;"/>
<path d="M28.1125 26.8709L32.7496 28.6857L29.7094 43.0401L29.8741 43.1045L37.8119 30.667L41.8864 32.2618L39.3156 46.8321L39.4528 46.8858L46.9488 34.2431L51.5858 36.0579L39.4104 54.7141L34.4852 52.7864L37.1937 38.5126L37.029 38.4481L29.3954 50.7944L24.4703 48.8668L28.1125 26.8709ZM24.0483 35.244L48.921 44.9788L47.7412 48.0108L22.8685 38.2761L24.0483 35.244Z" fill="#292929" style="fill:#292929;fill:color(display-p3 0.1608 0.1608 0.1608);fill-opacity:1;"/>
</svg>
