<svg width="337" height="52" viewBox="0 0 337 52" fill="none" xmlns="http://www.w3.org/2000/svg">
<rect width="337" height="52" rx="8" fill="white" style="fill:white;fill-opacity:1;"/>
<path d="M123.797 32L127.703 20.6875H130.719L134.633 32H132.109L129.258 23.2422H129.164L126.305 32H123.797ZM132.219 27.5547V29.3906H126.18V27.5547H132.219ZM135.859 23.5156H138.133V24.9375H138.242C138.263 24.8906 138.284 24.849 138.305 24.8125C138.445 24.5469 138.612 24.3125 138.805 24.1094C138.997 23.9062 139.247 23.7396 139.555 23.6094C139.867 23.474 140.234 23.4062 140.656 23.4062C141.297 23.4062 141.878 23.5703 142.398 23.8984C142.924 24.2266 143.339 24.7214 143.641 25.3828C143.943 26.0391 144.094 26.8333 144.094 27.7656C144.094 28.6875 143.945 29.4766 143.648 30.1328C143.352 30.7839 142.94 31.2812 142.414 31.625C141.893 31.9635 141.305 32.1328 140.648 32.1328C140.232 32.1328 139.865 32.0651 139.547 31.9297C139.234 31.7943 138.977 31.625 138.773 31.4219C138.576 31.2188 138.409 30.9818 138.273 30.7109L138.242 30.6484H138.172V35.1875H135.859V23.5156ZM138.109 27.75C138.115 28.2604 138.188 28.7057 138.328 29.0859C138.474 29.4609 138.682 29.7552 138.953 29.9688C139.229 30.1823 139.557 30.2891 139.938 30.2891C140.318 30.2891 140.643 30.1823 140.914 29.9688C141.19 29.7552 141.396 29.4583 141.531 29.0781C141.672 28.6979 141.742 28.2552 141.742 27.75C141.742 27.25 141.672 26.8125 141.531 26.4375C141.396 26.0625 141.19 25.7734 140.914 25.5703C140.643 25.362 140.318 25.2578 139.938 25.2578C139.552 25.2578 139.224 25.3568 138.953 25.5547C138.682 25.7526 138.474 26.0417 138.328 26.4219C138.188 26.7969 138.115 27.2396 138.109 27.75ZM145.578 23.5156H147.852V24.9375H147.961C147.982 24.8906 148.003 24.849 148.023 24.8125C148.164 24.5469 148.331 24.3125 148.523 24.1094C148.716 23.9062 148.966 23.7396 149.273 23.6094C149.586 23.474 149.953 23.4062 150.375 23.4062C151.016 23.4062 151.596 23.5703 152.117 23.8984C152.643 24.2266 153.057 24.7214 153.359 25.3828C153.661 26.0391 153.812 26.8333 153.812 27.7656C153.812 28.6875 153.664 29.4766 153.367 30.1328C153.07 30.7839 152.659 31.2812 152.133 31.625C151.612 31.9635 151.023 32.1328 150.367 32.1328C149.951 32.1328 149.583 32.0651 149.266 31.9297C148.953 31.7943 148.695 31.625 148.492 31.4219C148.294 31.2188 148.128 30.9818 147.992 30.7109L147.961 30.6484H147.891V35.1875H145.578V23.5156ZM147.828 27.75C147.833 28.2604 147.906 28.7057 148.047 29.0859C148.193 29.4609 148.401 29.7552 148.672 29.9688C148.948 30.1823 149.276 30.2891 149.656 30.2891C150.036 30.2891 150.362 30.1823 150.633 29.9688C150.909 29.7552 151.115 29.4583 151.25 29.0781C151.391 28.6979 151.461 28.2552 151.461 27.75C151.461 27.25 151.391 26.8125 151.25 26.4375C151.115 26.0625 150.909 25.7734 150.633 25.5703C150.362 25.362 150.036 25.2578 149.656 25.2578C149.271 25.2578 148.943 25.3568 148.672 25.5547C148.401 25.7526 148.193 26.0417 148.047 26.4219C147.906 26.7969 147.833 27.2396 147.828 27.75ZM157.609 32H155.297V20.6875H157.609V32ZM163.258 32.1641C162.398 32.1641 161.651 31.987 161.016 31.6328C160.385 31.2786 159.901 30.7734 159.562 30.1172C159.224 29.4609 159.055 28.6901 159.055 27.8047C159.055 26.9349 159.224 26.1667 159.562 25.5C159.906 24.8333 160.385 24.3177 161 23.9531C161.62 23.5885 162.341 23.4062 163.164 23.4062C163.924 23.4062 164.604 23.5677 165.203 23.8906C165.802 24.2083 166.273 24.6901 166.617 25.3359C166.966 25.9818 167.141 26.7708 167.141 27.7031V28.3516H160V26.9062H164.961C164.956 26.5677 164.878 26.263 164.727 25.9922C164.581 25.7214 164.375 25.5104 164.109 25.3594C163.844 25.2083 163.542 25.1328 163.203 25.1328C162.844 25.1328 162.523 25.2161 162.242 25.3828C161.961 25.5443 161.74 25.7682 161.578 26.0547C161.422 26.3411 161.341 26.6536 161.336 26.9922V28.3516C161.336 28.7786 161.417 29.1484 161.578 29.4609C161.745 29.7682 161.974 30.0078 162.266 30.1797C162.557 30.3516 162.898 30.4375 163.289 30.4375C163.549 30.4323 163.786 30.3932 164 30.3203C164.214 30.2474 164.393 30.151 164.539 30.0312C164.685 29.9062 164.799 29.7604 164.883 29.5938H167.086C166.971 30.1146 166.745 30.5677 166.406 30.9531C166.068 31.3385 165.63 31.638 165.094 31.8516C164.557 32.0599 163.945 32.1641 163.258 32.1641ZM181.117 31.8594H168.117V30.2266H181.117V31.8594ZM175.57 30.9062H173.609V27.5312H175.57V30.9062ZM179.617 24.8516H171.602V27.2812H169.617V23.2891H177.648V21.7422H169.594V20.1406H179.617V24.8516ZM179.953 28.0703H169.617V26.4531H179.953V28.0703ZM190.797 22.4297C190.797 23.6797 190.643 24.8438 190.336 25.9219C190.034 27 189.573 27.9505 188.953 28.7734C188.339 29.5911 187.576 30.2109 186.664 30.6328L185.453 28.9688C186.255 28.6302 186.935 28.1276 187.492 27.4609C188.049 26.7891 188.464 26.0234 188.734 25.1641C189.01 24.2995 189.151 23.388 189.156 22.4297V20.3047H190.797V22.4297ZM191.18 22.4297C191.174 23.3359 191.307 24.2005 191.578 25.0234C191.849 25.8411 192.253 26.5729 192.789 27.2188C193.331 27.8646 193.992 28.3516 194.773 28.6797L193.602 30.2812C192.711 29.875 191.961 29.2812 191.352 28.5C190.747 27.7135 190.292 26.8047 189.984 25.7734C189.682 24.737 189.534 23.6224 189.539 22.4297V20.3047H191.18V22.4297ZM197.547 33.4766H195.523V19.2031H197.547V33.4766ZM204.336 21.5938C204.331 22.5052 204.18 23.3568 203.883 24.1484C203.586 24.9349 203.135 25.625 202.531 26.2188C201.927 26.8073 201.188 27.2474 200.312 27.5391L199.266 26C200.026 25.75 200.661 25.3958 201.172 24.9375C201.688 24.4792 202.07 23.9635 202.32 23.3906C202.57 22.8125 202.698 22.2135 202.703 21.5938V20.6719H204.336V21.5938ZM204.719 21.6094C204.719 22.1927 204.836 22.7526 205.07 23.2891C205.31 23.8255 205.674 24.3125 206.164 24.75C206.659 25.1823 207.279 25.5182 208.023 25.7578L207.023 27.2969C206.159 27.0156 205.432 26.5911 204.844 26.0234C204.26 25.4505 203.823 24.7891 203.531 24.0391C203.24 23.2839 203.094 22.474 203.094 21.6094V20.6719H204.719V21.6094ZM207.555 21.6406H199.805V20.0469H207.555V21.6406ZM210.75 27.7969H208.758V19.2031H210.75V27.7969ZM212.672 24.3203H210.188V22.6641H212.672V24.3203ZM210.75 33.4375H208.758V29.9922H201.18V28.4062H210.75V33.4375ZM224.516 33.4375H222.547V19.2031H224.516V33.4375ZM226.625 26.4219H224.078V24.7891H226.625V26.4219ZM221.578 22.9375H213.227V21.3359H221.578V22.9375ZM217.438 23.7266C218.12 23.7266 218.737 23.8724 219.289 24.1641C219.846 24.4505 220.281 24.8516 220.594 25.3672C220.911 25.8828 221.073 26.4661 221.078 27.1172C221.073 27.7734 220.911 28.3594 220.594 28.875C220.281 29.3854 219.846 29.7865 219.289 30.0781C218.737 30.3646 218.12 30.5078 217.438 30.5078C216.745 30.5078 216.122 30.3646 215.57 30.0781C215.018 29.7865 214.586 29.3854 214.273 28.875C213.961 28.3594 213.805 27.7734 213.805 27.1172C213.805 26.4661 213.961 25.8828 214.273 25.3672C214.586 24.8516 215.018 24.4505 215.57 24.1641C216.122 23.8724 216.745 23.7266 217.438 23.7266ZM217.438 25.3516C217.104 25.3568 216.807 25.4297 216.547 25.5703C216.286 25.7109 216.081 25.9167 215.93 26.1875C215.784 26.4531 215.711 26.763 215.711 27.1172C215.711 27.4818 215.784 27.7969 215.93 28.0625C216.081 28.3229 216.286 28.5234 216.547 28.6641C216.807 28.8047 217.104 28.8776 217.438 28.8828C217.771 28.8776 218.068 28.8047 218.328 28.6641C218.594 28.5234 218.797 28.3229 218.938 28.0625C219.083 27.7969 219.156 27.4818 219.156 27.1172C219.156 26.763 219.083 26.4531 218.938 26.1875C218.797 25.9167 218.594 25.7109 218.328 25.5703C218.068 25.4297 217.771 25.3568 217.438 25.3516ZM218.43 21.9453H216.445V19.4297H218.43V21.9453ZM239.078 33.4375H237.055V19.2031H239.078V33.4375ZM234.82 20.7031C234.815 22.2292 234.609 23.6146 234.203 24.8594C233.797 26.099 233.107 27.2396 232.133 28.2812C231.159 29.3229 229.854 30.2292 228.219 31L227.172 29.4062C228.536 28.7604 229.633 28.0339 230.461 27.2266C231.294 26.4193 231.898 25.513 232.273 24.5078C232.648 23.5026 232.836 22.3516 232.836 21.0547V20.7031H234.82ZM233.75 22.2734H227.93V20.7031H233.75V22.2734Z" fill="#101012" style="fill:#101012;fill:color(display-p3 0.0627 0.0627 0.0706);fill-opacity:1;"/>
<path d="M114.602 32.5785C114.261 33.3666 113.857 34.092 113.389 34.759C112.751 35.6682 112.229 36.2975 111.827 36.647C111.203 37.2206 110.535 37.5144 109.819 37.5311C109.305 37.5311 108.686 37.3849 107.964 37.0884C107.241 36.7932 106.576 36.647 105.968 36.647C105.33 36.647 104.646 36.7932 103.915 37.0884C103.182 37.3849 102.592 37.5395 102.141 37.5548C101.454 37.584 100.77 37.2819 100.087 36.647C99.6516 36.2669 99.1065 35.6153 98.4535 34.6921C97.7528 33.7063 97.1768 32.5632 96.7256 31.26C96.2423 29.8523 96 28.4892 96 27.1695C96 25.6579 96.3266 24.3541 96.9809 23.2615C97.4951 22.3839 98.1792 21.6916 99.0353 21.1834C99.8915 20.6752 100.817 20.4162 101.813 20.3997C102.358 20.3997 103.073 20.5683 103.961 20.8997C104.847 21.2322 105.416 21.4008 105.665 21.4008C105.851 21.4008 106.483 21.2036 107.554 20.8106C108.567 20.446 109.422 20.2951 110.123 20.3546C112.02 20.5077 113.446 21.2558 114.394 22.6036C112.697 23.632 111.857 25.0724 111.874 26.9202C111.889 28.3594 112.412 29.5571 113.438 30.5081C113.903 30.9495 114.422 31.2906 115 31.5329C114.875 31.8963 114.742 32.2444 114.602 32.5785ZM110.249 15.4513C110.249 16.5794 109.837 17.6327 109.016 18.6076C108.024 19.7666 106.825 20.4363 105.525 20.3306C105.508 20.1953 105.499 20.0528 105.499 19.9032C105.499 18.8202 105.97 17.6612 106.807 16.7136C107.225 16.2338 107.757 15.8348 108.402 15.5166C109.045 15.2031 109.653 15.0297 110.226 15C110.242 15.1508 110.249 15.3016 110.249 15.4512V15.4513Z" fill="black" style="fill:black;fill-opacity:1;"/>
</svg>
