<svg width="110" height="110" viewBox="0 0 110 110" fill="none" xmlns="http://www.w3.org/2000/svg">
<g filter="url(#filter0_d_427_11616)">
<circle cx="55" cy="51" r="29" fill="#25DA83" style="fill:#25DA83;fill:color(display-p3 0.1459 0.8542 0.5142);fill-opacity:1;"/>
</g>
<path fill-rule="evenodd" clip-rule="evenodd" d="M48.0762 50.9282C47.7242 50.9756 47.3649 51 47 51C42.5817 51 39 47.4183 39 43C39 38.5817 42.5817 35 47 35C51.4183 35 55 38.5817 55 43C55 43.1679 54.9948 43.3346 54.9846 43.5H48.0762V50.9282ZM48.0762 51.0718C47.7242 51.0244 47.3649 51 47 51C42.5817 51 39 54.5817 39 59C39 63.4183 42.5817 67 47 67C51.4183 67 55 63.4183 55 59C55 63.4183 58.5817 67 63 67C67.4183 67 71 63.4183 71 59C71 54.5817 67.4183 51 63 51C67.4183 51 71 47.4183 71 43C71 38.5817 67.4183 35 63 35C58.5817 35 55 38.5817 55 43C55 43.1679 55.0052 43.3346 55.0154 43.5H54.9846C54.7487 47.326 51.8236 50.4244 48.0762 50.9282V51.0718ZM54.9281 57.9231C54.4495 54.3661 51.6333 51.55 48.0762 51.0718V57.9231H54.9281ZM55.0719 57.9231C55.0245 58.2753 55 58.6348 55 59C55 58.6348 54.9755 58.2753 54.9281 57.9231H55.0719ZM62.4992 51.0154C58.6739 51.2517 55.576 54.1763 55.0719 57.9231H62.4992V51.0154ZM62.4992 51.0154C62.6649 51.0052 62.8318 51 63 51C62.8318 51 62.6649 50.9948 62.4992 50.9846V43.5H55.0154C55.2633 47.5198 58.4796 50.7363 62.4992 50.9846V51.0154Z" fill="black" style="fill:black;fill-opacity:1;"/>
<defs>
<filter id="filter0_d_427_11616" x="0.6" y="0.6" width="108.8" height="108.8" filterUnits="userSpaceOnUse" color-interpolation-filters="sRGB">
<feFlood flood-opacity="0" result="BackgroundImageFix"/>
<feColorMatrix in="SourceAlpha" type="matrix" values="0 0 0 0 0 0 0 0 0 0 0 0 0 0 0 0 0 0 127 0" result="hardAlpha"/>
<feOffset dy="4"/>
<feGaussianBlur stdDeviation="12.7"/>
<feComposite in2="hardAlpha" operator="out"/>
<feColorMatrix type="matrix" values="0 0 0 0 0.283122 0 0 0 0 0.283122 0 0 0 0 0.283122 0 0 0 0.58 0"/>
<feBlend mode="normal" in2="BackgroundImageFix" result="effect1_dropShadow_427_11616"/>
<feBlend mode="normal" in="SourceGraphic" in2="effect1_dropShadow_427_11616" result="shape"/>
</filter>
</defs>
</svg>
