<svg width="25" height="25" viewBox="0 0 25 25" fill="none" xmlns="http://www.w3.org/2000/svg">
<path d="M19.9375 23H5.0625C4.4757 23 4 22.5423 4 21.9777V12.1201C4.01646 11.8696 4.12712 11.6334 4.31131 11.4556L11.7488 4.29981C11.9481 4.10786 12.2185 4 12.5005 4C12.7825 4 13.053 4.10786 13.2522 4.29981L20.6897 11.4556C20.8892 11.6471 21.0009 11.9073 21 12.1784V21.9777C21 22.5423 20.5243 23 19.9375 23ZM11.8391 18.3743C12.0729 18.5583 12.2992 18.7382 12.5 18.911C12.7125 18.73 12.9505 18.543 13.2034 18.3446L13.2639 18.2966C14.5028 17.3244 16.0456 16.1151 16.0456 14.6165C16.0454 14.122 15.8384 13.6484 15.4712 13.3024C15.104 12.9565 14.6076 12.7672 14.0937 12.7774C13.4858 12.7758 12.906 13.0239 12.5 13.4593C12.0941 13.0238 11.5142 12.7757 10.9062 12.7774C10.3926 12.7678 9.89655 12.9574 9.5298 13.3035C9.16306 13.6497 8.95646 14.1232 8.95656 14.6175C8.95656 16.111 10.4866 17.3122 11.7191 18.2772H11.718H11.7233L11.7424 18.2925H11.7477L11.7562 18.3119L11.8115 18.3559L11.8253 18.3661H11.8317L11.8391 18.3743Z" fill="white" style="fill:white;fill-opacity:1;"/>
</svg>
