<svg width="85" height="56" viewBox="0 0 85 56" fill="none" xmlns="http://www.w3.org/2000/svg">
<rect width="37.7639" height="14.4893" rx="2" transform="matrix(0.345713 0.93834 -0.941105 0.338113 68.375 1.28065)" fill="#3B3B3B" style="fill:#3B3B3B;fill:color(display-p3 0.2300 0.2300 0.2300);fill-opacity:1;"/>
<rect width="18.1267" height="6.86336" rx="2" transform="matrix(0.345713 0.93834 -0.941105 0.338113 75.3984 9.38808)" fill="#3B3B3B" style="fill:#3B3B3B;fill:color(display-p3 0.2300 0.2300 0.2300);fill-opacity:1;"/>
<rect width="18.1267" height="6.86336" rx="2" transform="matrix(0.345713 0.93834 -0.941105 0.338113 24.4453 27.1478)" fill="#3B3B3B" style="fill:#3B3B3B;fill:color(display-p3 0.2300 0.2300 0.2300);fill-opacity:1;"/>
<rect width="37.7639" height="14.4893" rx="2" transform="matrix(0.345713 0.93834 -0.941105 0.338113 31.7734 14.431)" fill="#3B3B3B" style="fill:#3B3B3B;fill:color(display-p3 0.2300 0.2300 0.2300);fill-opacity:1;"/>
<rect width="12.8397" height="36.6046" transform="matrix(0.345713 0.93834 -0.941105 0.338113 65.6367 15.9076)" fill="#3B3B3B" style="fill:#3B3B3B;fill:color(display-p3 0.2300 0.2300 0.2300);fill-opacity:1;"/>
<path d="M5.90272 14.0364L8.4943 16.7697L10.8702 13.8516L10.7456 17.5939L14.5152 17.1895L11.7473 19.7487L14.7023 22.0949L10.9126 21.9718L11.3221 25.6943L8.73055 22.961L6.35462 25.8791L6.47929 22.1368L2.70971 22.5412L5.47758 19.982L2.52252 17.6358L6.31223 17.7589L5.90272 14.0364Z" fill="#4C4C4C" style="fill:#4C4C4C;fill:color(display-p3 0.2988 0.2982 0.2982);fill-opacity:1;"/>
<ellipse cx="1.49559" cy="1.48338" rx="1.49559" ry="1.48338" transform="matrix(-0.910787 0.412877 0.42155 0.906805 8.90234 31.1332)" fill="#4C4C4C" style="fill:#4C4C4C;fill:color(display-p3 0.2988 0.2982 0.2982);fill-opacity:1;"/>
</svg>
