<svg width="87" height="63" viewBox="0 0 87 63" fill="none" xmlns="http://www.w3.org/2000/svg">
<g clip-path="url(#clip0_765_18230)">
<path d="M12.7134 32.9815L12.1848 33.854L11.2855 33.3566C8.99246 32.0883 6.03681 32.866 4.68389 35.0936C3.33097 37.3213 4.0931 40.1553 6.38616 41.4236L15.0112 46.1941C15.3311 46.3711 15.7436 46.2625 15.9323 45.9517L21.0261 37.5701C22.3734 35.3378 21.6165 32.5109 19.3231 31.2424C17.0259 29.9718 14.0688 30.7498 12.7134 32.9815Z" fill="#3B3B3B" style="fill:#3B3B3B;fill:color(display-p3 0.2300 0.2300 0.2300);fill-opacity:1;"/>
</g>
<path d="M27.2789 49.3323L26.9512 49.6632L26.6225 49.332C25.7845 48.4875 24.4258 48.4875 23.5878 49.332C22.7497 50.1764 22.7497 51.5455 23.5878 52.39L26.7399 55.5662C26.8569 55.6841 27.0465 55.6841 27.1634 55.5662L30.318 52.3894C31.1542 51.5422 31.1556 50.1769 30.3174 49.3323C29.4779 48.4863 28.1185 48.4863 27.2789 49.3323Z" fill="#3B3B3B" style="fill:#3B3B3B;fill:color(display-p3 0.2300 0.2300 0.2300);fill-opacity:1;"/>
<path d="M72.4084 10.1955C80.468 12.3317 85.208 20.6759 82.7 29.9343C77.6841 48.4511 54.8579 57.9946 47.2141 55.9686C39.5702 53.9426 24.6261 34.3883 29.6421 15.8715C32.15 6.61314 40.5737 1.75785 48.5324 3.86726C53.4667 5.1751 57.1009 8.97351 59.0373 12.3219C62.4067 10.3798 67.4741 8.88768 72.4084 10.1955Z" fill="#3B3B3B" style="fill:#3B3B3B;fill:color(display-p3 0.2300 0.2300 0.2300);fill-opacity:1;"/>
<defs>
<clipPath id="clip0_765_18230">
<rect width="20.9581" height="20.8768" fill="white" style="fill:white;fill-opacity:1;" transform="matrix(0.967082 -0.254464 0.259696 0.965691 0 30.8088)"/>
</clipPath>
</defs>
</svg>
