<svg width="271" height="400" viewBox="0 0 271 400" fill="none" xmlns="http://www.w3.org/2000/svg">
<path fill-rule="evenodd" clip-rule="evenodd" d="M16 0H254C262.837 0 270 7.16344 270 16V384C270 392.837 262.837 400 254 400H16C7.16344 400 0 392.837 0 384V16C0 7.16345 7.16344 0 16 0ZM220.931 187.248C219.093 185.489 219.092 182.478 220.929 180.718C232.051 170.062 238.962 155.148 238.962 138.641C238.962 106.254 212.358 80 179.54 80C163.408 80 148.777 86.3439 138.07 96.6416C136.351 98.2945 133.582 98.2955 131.862 96.6438C121.158 86.3632 106.54 80.0312 90.4226 80.0312C57.6044 80.0312 31 106.286 31 138.672C31 155.175 37.9078 170.086 49.0256 180.742C50.8599 182.5 50.8607 185.505 49.0273 187.264C37.9222 197.919 31.0234 212.821 31.0234 229.313C31.0234 261.699 57.6279 287.954 90.4461 287.954C106.563 287.954 121.181 281.622 131.885 271.342C133.606 269.69 136.376 269.691 138.094 271.345C148.803 281.651 163.439 288.001 179.579 288.001C212.397 288.001 239.002 261.746 239.002 229.36C239.002 212.835 232.075 197.907 220.931 187.248Z" fill="#56BAF0" style="fill:#56BAF0;fill:color(display-p3 0.3373 0.7294 0.9412);fill-opacity:1;"/>
<mask id="mask0_489_17839" style="mask-type:alpha" maskUnits="userSpaceOnUse" x="0" y="0" width="270" height="400">
<path fill-rule="evenodd" clip-rule="evenodd" d="M16 0H254C262.837 0 270 7.16344 270 16V384C270 392.837 262.837 400 254 400H16C7.16344 400 0 392.837 0 384V16C0 7.16345 7.16344 0 16 0ZM220.931 187.248C219.093 185.489 219.092 182.478 220.929 180.718C232.051 170.062 238.962 155.148 238.962 138.641C238.962 106.254 212.358 80 179.54 80C163.408 80 148.777 86.3439 138.07 96.6416C136.351 98.2945 133.582 98.2955 131.862 96.6438C121.158 86.3632 106.54 80.0312 90.4226 80.0312C57.6044 80.0312 31 106.286 31 138.672C31 155.175 37.9078 170.086 49.0256 180.742C50.8599 182.5 50.8607 185.505 49.0273 187.264C37.9222 197.919 31.0234 212.821 31.0234 229.313C31.0234 261.699 57.6279 287.954 90.4461 287.954C106.563 287.954 121.181 281.622 131.885 271.342C133.606 269.69 136.376 269.691 138.094 271.345C148.803 281.651 163.439 288.001 179.579 288.001C212.397 288.001 239.002 261.746 239.002 229.36C239.002 212.835 232.075 197.907 220.931 187.248Z" fill="#25DA83" style="fill:#25DA83;fill:color(display-p3 0.1459 0.8542 0.5142);fill-opacity:1;"/>
</mask>
<g mask="url(#mask0_489_17839)">
<g opacity="0.3">
<path fill-rule="evenodd" clip-rule="evenodd" d="M31.6215 295.224C33.2328 298.074 33.595 301.569 32.3093 304.812C30.0279 310.565 23.4221 313.343 17.5548 311.017C14.3822 309.759 12.0751 307.266 10.9858 304.332C8.1827 305.72 4.79605 305.954 1.62509 304.696C-4.24226 302.37 -7.14928 295.82 -4.86794 290.066C-3.58216 286.824 -0.922672 284.526 2.20407 283.555C0.594933 280.706 0.233782 277.212 1.51881 273.972C3.80015 268.218 10.406 265.44 16.2733 267.767C17.8449 268.39 19.204 269.316 20.308 270.449C22.2907 266.582 25.8985 262.827 31.9709 263.116C33.5377 263.191 34.8711 264.515 34.9491 266.074C35.0271 267.634 33.8202 268.837 32.2534 268.762C29.0544 268.61 26.8508 270.505 25.3419 273.553C27.5454 273.042 29.9337 273.176 32.2108 274.079C38.0781 276.406 40.9852 282.956 38.7038 288.709C37.4166 291.955 34.7527 294.255 31.6215 295.224Z" fill="white" style="fill:white;fill-opacity:1;"/>
<path d="M31.6215 295.224L31.1862 295.47L30.8808 294.93L31.4736 294.746L31.6215 295.224ZM10.9858 304.332L10.7639 303.884L11.2614 303.637L11.4546 304.158L10.9858 304.332ZM2.20407 283.555L2.63943 283.309L2.94417 283.849L2.35238 284.033L2.20407 283.555ZM20.308 270.449L20.7529 270.677L20.4355 271.296L19.9499 270.798L20.308 270.449ZM31.9709 263.116L31.9471 263.616L31.9471 263.616L31.9709 263.116ZM34.9491 266.074L34.4497 266.099L34.4497 266.099L34.9491 266.074ZM32.2534 268.762L32.2296 269.262L32.2534 268.762ZM25.3419 273.553L25.4547 274.04L24.4246 274.278L24.8938 273.331L25.3419 273.553ZM31.8445 304.628C33.0714 301.533 32.7274 298.196 31.1862 295.47L32.0567 294.978C33.7382 297.952 34.1186 301.605 32.7741 304.996L31.8445 304.628ZM17.7391 310.552C23.3584 312.78 29.6683 310.116 31.8445 304.628L32.7741 304.996C30.3876 311.015 23.4859 313.906 17.3705 311.482L17.7391 310.552ZM11.4546 304.158C12.496 306.963 14.7021 309.348 17.7391 310.552L17.3705 311.482C14.0623 310.17 11.6543 307.569 10.5171 304.506L11.4546 304.158ZM1.80939 304.232C4.84483 305.435 8.08394 305.211 10.7639 303.884L11.2078 304.78C8.28145 306.229 4.74726 306.472 1.44079 305.161L1.80939 304.232ZM-4.40315 290.251C-6.57931 295.739 -3.80989 302.004 1.80939 304.232L1.44079 305.161C-4.67462 302.736 -7.71925 295.901 -5.33274 289.882L-4.40315 290.251ZM2.35238 284.033C-0.638204 284.961 -3.1762 287.156 -4.40315 290.251L-5.33274 289.882C-3.98811 286.491 -1.20714 284.091 2.05575 283.078L2.35238 284.033ZM1.98361 274.156C0.757382 277.248 1.10037 280.584 2.63943 283.309L1.76871 283.801C0.0894996 280.828 -0.289818 277.176 1.05402 273.787L1.98361 274.156ZM16.089 268.231C10.4697 266.003 4.15977 268.668 1.98361 274.156L1.05402 273.787C3.44054 267.769 10.3422 264.877 16.4576 267.302L16.089 268.231ZM19.9499 270.798C18.8943 269.715 17.5941 268.828 16.089 268.231L16.4576 267.302C18.0957 267.951 19.5138 268.917 20.6661 270.1L19.9499 270.798ZM31.9471 263.616C26.1458 263.339 22.6864 266.906 20.7529 270.677L19.8631 270.22C21.895 266.258 25.6513 262.315 31.9947 262.617L31.9471 263.616ZM34.4497 266.099C34.3847 264.799 33.2589 263.678 31.9471 263.616L31.9947 262.617C33.8165 262.704 35.3575 264.231 35.4485 266.049L34.4497 266.099ZM32.2771 268.263C33.5516 268.324 34.5129 267.361 34.4497 266.099L35.4485 266.049C35.5414 267.906 34.0888 269.35 32.2296 269.262L32.2771 268.263ZM24.8938 273.331C26.4524 270.183 28.8056 268.097 32.2771 268.263L32.2296 269.262C29.3032 269.122 27.2491 270.827 25.7899 273.774L24.8938 273.331ZM32.0265 274.544C29.8463 273.679 27.5618 273.552 25.4547 274.04L25.2291 273.065C27.5291 272.533 30.0212 272.673 32.3951 273.614L32.0265 274.544ZM38.239 288.525C40.4152 283.037 37.6458 276.772 32.0265 274.544L32.3951 273.614C38.5105 276.039 41.5551 282.875 39.1686 288.894L38.239 288.525ZM31.4736 294.746C34.4685 293.819 37.0107 291.623 38.239 288.525L39.1686 288.894C37.8225 292.288 35.0369 294.69 31.7693 295.701L31.4736 294.746Z" fill="black" fill-opacity="0.2" style="fill:black;fill-opacity:0.2;"/>
<path fill-rule="evenodd" clip-rule="evenodd" d="M54.6215 22.2175C56.2328 25.0674 56.595 28.563 55.3093 31.8055C53.0279 37.5589 46.4221 40.3369 40.5548 38.0104C37.3822 36.7524 35.0751 34.2596 33.9858 31.3255C31.1827 32.7139 27.796 32.9475 24.6251 31.6901C18.7577 29.3636 15.8507 22.8136 18.1321 17.0601C19.4178 13.8174 22.0773 11.5199 25.2041 10.5487C23.5949 7.6996 23.2338 4.20605 24.5188 0.965274C26.8002 -4.78815 33.406 -7.5662 39.2733 -5.23969C40.8449 -4.61654 42.204 -3.69039 43.308 -2.5577C45.2907 -6.42399 48.8985 -10.1792 54.9709 -9.88997C56.5377 -9.81534 57.8711 -8.49096 57.9491 -6.93189C58.0271 -5.37282 56.8202 -4.16945 55.2534 -4.24408C52.0544 -4.39645 49.8508 -2.50124 48.3419 0.546166C50.5454 0.0358732 52.9337 0.169948 55.2108 1.07285C61.0781 3.39936 63.9852 9.94944 61.7038 15.7029C60.4166 18.9491 57.7527 21.2482 54.6215 22.2175Z" fill="white" style="fill:white;fill-opacity:1;"/>
<path d="M54.6215 22.2175L54.1862 22.4636L53.8808 21.9234L54.4736 21.7399L54.6215 22.2175ZM33.9858 31.3255L33.7639 30.8774L34.2614 30.631L34.4546 31.1515L33.9858 31.3255ZM25.2041 10.5487L25.6394 10.3028L25.9442 10.8424L25.3524 11.0262L25.2041 10.5487ZM43.308 -2.5577L43.7529 -2.32954L43.4355 -1.71055L42.9499 -2.20872L43.308 -2.5577ZM54.9709 -9.88997L54.9471 -9.39053L54.9471 -9.39053L54.9709 -9.88997ZM57.9491 -6.93189L57.4497 -6.90691L57.4497 -6.90691L57.9491 -6.93189ZM55.2534 -4.24408L55.2296 -3.74464L55.2534 -4.24408ZM48.3419 0.546166L48.4547 1.03328L47.4246 1.27181L47.8938 0.324298L48.3419 0.546166ZM54.8445 31.6212C56.0714 28.5271 55.7274 25.1894 54.1862 22.4636L55.0567 21.9714C56.7382 24.9454 57.1186 28.5989 55.7741 31.9898L54.8445 31.6212ZM40.7391 37.5456C46.3584 39.7738 52.6683 37.1093 54.8445 31.6212L55.7741 31.9898C53.3876 38.0084 46.4859 40.9001 40.3705 38.4752L40.7391 37.5456ZM34.4546 31.1515C35.496 33.9566 37.7021 36.3414 40.7391 37.5456L40.3705 38.4752C37.0623 37.1635 34.6543 34.5625 33.5171 31.4995L34.4546 31.1515ZM24.8094 31.2253C27.8448 32.429 31.0839 32.2048 33.7639 30.8774L34.2078 31.7735C31.2814 33.223 27.7473 33.466 24.4408 32.1549L24.8094 31.2253ZM18.5969 17.2444C16.4207 22.7326 19.1901 28.9972 24.8094 31.2253L24.4408 32.1549C18.3254 29.7301 15.2807 22.8945 17.6673 16.8758L18.5969 17.2444ZM25.3524 11.0262C22.3618 11.9551 19.8238 14.1501 18.5969 17.2444L17.6673 16.8758C19.0119 13.4847 21.7929 11.0847 25.0558 10.0712L25.3524 11.0262ZM24.9836 1.14957C23.7574 4.24205 24.1004 7.57778 25.6394 10.3028L24.7687 10.7946C23.0895 7.82141 22.7102 4.17006 24.054 0.780974L24.9836 1.14957ZM39.089 -4.7749C33.4697 -7.00305 27.1598 -4.3386 24.9836 1.14957L24.054 0.780974C26.4405 -5.23769 33.3422 -8.12936 39.4576 -5.70449L39.089 -4.7749ZM42.9499 -2.20872C41.8943 -3.29184 40.5941 -4.17812 39.089 -4.7749L39.4576 -5.70449C41.0957 -5.05497 42.5138 -4.08895 43.6661 -2.90669L42.9499 -2.20872ZM54.9471 -9.39053C49.1458 -9.66687 45.6864 -6.09993 43.7529 -2.32954L42.8631 -2.78586C44.895 -6.74805 48.6513 -10.6916 54.9947 -10.3894L54.9471 -9.39053ZM57.4497 -6.90691C57.3847 -8.20705 56.2589 -9.32805 54.9471 -9.39053L54.9947 -10.3894C56.8165 -10.3026 58.3575 -8.77487 58.4485 -6.95687L57.4497 -6.90691ZM55.2771 -4.74351C56.5516 -4.68281 57.5129 -5.64551 57.4497 -6.90691L58.4485 -6.95687C58.5414 -5.10013 57.0888 -3.65608 55.2296 -3.74464L55.2771 -4.74351ZM47.8938 0.324298C49.4524 -2.82353 51.8056 -4.90887 55.2771 -4.74351L55.2296 -3.74464C52.3032 -3.88403 50.2491 -2.17894 48.7899 0.768034L47.8938 0.324298ZM55.0265 1.53764C52.8463 0.673149 50.5618 0.54532 48.4547 1.03328L48.2291 0.0590565C50.5291 -0.473574 53.0212 -0.333254 55.3951 0.608054L55.0265 1.53764ZM61.239 15.5186C63.4152 10.0304 60.6458 3.76579 55.0265 1.53764L55.3951 0.608054C61.5105 3.03293 64.5551 9.86849 62.1686 15.8872L61.239 15.5186ZM54.4736 21.7399C57.4685 20.8127 60.0107 18.6163 61.239 15.5186L62.1686 15.8872C60.8225 19.282 58.0369 21.6836 54.7693 22.6951L54.4736 21.7399Z" fill="black" fill-opacity="0.2" style="fill:black;fill-opacity:0.2;"/>
<path fill-rule="evenodd" clip-rule="evenodd" d="M29.2776 181.935C27.4687 179.207 26.8601 175.745 27.9132 172.42C29.7818 166.52 36.1745 163.281 42.1918 165.187C45.4454 166.217 47.923 168.541 49.2172 171.39C51.9151 169.807 55.2767 169.334 58.5287 170.364C64.5459 172.27 67.9091 178.598 66.0405 184.498C64.9873 187.824 62.497 190.304 59.4468 191.494C61.2535 194.222 61.8609 197.681 60.8084 201.005C58.9398 206.905 52.5471 210.144 46.5298 208.238C44.9182 207.728 43.4969 206.9 42.3155 205.848C40.6113 209.845 37.2782 213.846 31.2006 213.987C29.6324 214.024 28.2087 212.797 28.0205 211.247C27.8324 209.698 28.9512 208.412 30.5194 208.375C33.7211 208.301 35.7851 206.255 37.0747 203.108C34.9127 203.773 32.5209 203.808 30.1857 203.069C24.1685 201.163 20.8053 194.835 22.6739 188.935C23.7282 185.606 26.2228 183.124 29.2776 181.935Z" fill="white" style="fill:white;fill-opacity:1;"/>
<path d="M29.2776 181.935L29.6944 181.659L30.0373 182.176L29.4589 182.401L29.2776 181.935ZM49.2172 171.39L49.4702 171.822L48.9915 172.103L48.7619 171.597L49.2172 171.39ZM59.4468 191.494L59.03 191.77L58.6878 191.253L59.2651 191.028L59.4468 191.494ZM42.3155 205.848L41.8556 205.652L42.1284 205.012L42.648 205.475L42.3155 205.848ZM31.2006 213.987L31.189 213.487L31.189 213.487L31.2006 213.987ZM28.0205 211.247L28.5169 211.187L28.5169 211.187L28.0205 211.247ZM30.5194 208.375L30.5078 207.876L30.5194 208.375ZM37.0747 203.108L36.9277 202.63L37.9383 202.319L37.5373 203.298L37.0747 203.108ZM28.3899 172.571C27.385 175.744 27.9642 179.049 29.6944 181.659L28.8609 182.212C26.9732 179.364 26.3353 175.747 27.4365 172.269L28.3899 172.571ZM42.0408 165.664C36.278 163.839 30.1723 166.943 28.3899 172.571L27.4365 172.269C29.3913 166.097 36.0711 162.724 42.3427 164.71L42.0408 165.664ZM48.7619 171.597C47.5247 168.873 45.1554 166.65 42.0408 165.664L42.3427 164.71C45.7354 165.785 48.3214 168.209 49.6724 171.184L48.7619 171.597ZM58.3777 170.841C55.2647 169.855 52.0496 170.308 49.4702 171.822L48.9641 170.959C51.7805 169.306 55.2887 168.814 58.6796 169.888L58.3777 170.841ZM65.5638 184.347C67.3462 178.719 64.1406 172.666 58.3777 170.841L58.6796 169.888C64.9513 171.874 68.4719 178.477 66.5171 184.649L65.5638 184.347ZM59.2651 191.028C62.1825 189.89 64.5588 187.521 65.5638 184.347L66.5171 184.649C65.4158 188.127 62.8116 190.718 59.6286 191.96L59.2651 191.028ZM60.3317 200.854C61.3361 197.682 60.758 194.379 59.03 191.77L59.8637 191.218C61.7491 194.065 62.3858 197.68 61.2851 201.156L60.3317 200.854ZM46.6808 207.761C52.4436 209.586 58.5493 206.482 60.3317 200.854L61.2851 201.156C59.3303 207.328 52.6505 210.701 46.3789 208.715L46.6808 207.761ZM42.648 205.475C43.7777 206.48 45.1373 207.272 46.6808 207.761L46.3789 208.715C44.699 208.183 43.2161 207.319 41.9831 206.222L42.648 205.475ZM31.189 213.487C36.9953 213.352 40.1937 209.55 41.8556 205.652L42.7755 206.044C41.029 210.14 37.5611 214.34 31.2122 214.487L31.189 213.487ZM28.5169 211.187C28.6738 212.479 29.876 213.518 31.189 213.487L31.2122 214.487C29.3888 214.529 27.7435 213.114 27.5242 211.307L28.5169 211.187ZM30.531 208.875C29.2555 208.905 28.3647 209.933 28.5169 211.187L27.5242 211.307C27.3002 209.462 28.647 207.919 30.5078 207.876L30.531 208.875ZM37.5373 203.298C36.2053 206.548 34.0055 208.795 30.531 208.875L30.5078 207.876C33.4367 207.808 35.365 205.961 36.612 202.919L37.5373 203.298ZM30.3367 202.592C32.5726 203.3 34.8604 203.266 36.9277 202.63L37.2217 203.586C34.9651 204.28 32.4693 204.316 30.0348 203.545L30.3367 202.592ZM23.1506 189.086C21.3681 194.714 24.5738 200.767 30.3367 202.592L30.0348 203.545C23.7631 201.559 20.2425 194.956 22.1972 188.784L23.1506 189.086ZM29.4589 182.401C26.5371 183.538 24.1566 185.909 23.1506 189.086L22.1972 188.784C23.2998 185.302 25.9085 182.71 29.0963 181.469L29.4589 182.401Z" fill="black" fill-opacity="0.2" style="fill:black;fill-opacity:0.2;"/>
<path fill-rule="evenodd" clip-rule="evenodd" d="M162.586 355.089C161.406 358.145 161.556 361.658 163.302 364.68C166.398 370.04 173.338 371.825 178.804 368.667C181.759 366.96 183.678 364.157 184.328 361.096C187.303 362.061 190.688 361.798 193.641 360.092C199.107 356.934 201.027 350.03 197.931 344.671C196.185 341.648 193.216 339.763 189.979 339.26C191.157 336.205 191.006 332.694 189.261 329.674C186.165 324.314 179.225 322.529 173.759 325.687C171.907 326.757 170.461 328.258 169.48 329.984C166.919 327.026 163.117 324.719 157.904 325.743C156.365 326.045 155.239 327.55 155.389 329.104C155.539 330.658 156.909 331.672 158.448 331.37C160.528 330.961 162.308 331.504 163.835 332.728C162.157 332.855 160.475 333.354 158.913 334.256C153.448 337.413 151.527 344.317 154.623 349.676C156.371 352.702 159.345 354.589 162.586 355.089Z" fill="white" style="fill:white;fill-opacity:1;"/>
<path d="M162.586 355.089L163.053 355.27L163.277 354.69L162.663 354.595L162.586 355.089ZM184.328 361.096L184.482 360.62L183.954 360.449L183.838 360.992L184.328 361.096ZM189.979 339.26L189.512 339.08L189.289 339.658L189.902 339.754L189.979 339.26ZM169.48 329.984L169.102 330.311L169.565 330.846L169.915 330.231L169.48 329.984ZM157.904 325.743L157.808 325.252L157.904 325.743ZM155.389 329.104L155.887 329.056L155.887 329.056L155.389 329.104ZM158.448 331.37L158.351 330.879L158.351 330.879L158.448 331.37ZM163.835 332.728L163.873 333.227L165.137 333.131L164.148 332.338L163.835 332.728ZM163.735 364.43C162.069 361.547 161.923 358.192 163.053 355.27L162.12 354.909C160.888 358.098 161.043 361.77 162.869 364.93L163.735 364.43ZM178.554 368.234C173.319 371.258 166.688 369.542 163.735 364.43L162.869 364.93C166.108 370.537 173.357 372.391 179.054 369.1L178.554 368.234ZM183.838 360.992C183.217 363.919 181.383 366.6 178.554 368.234L179.054 369.1C182.135 367.32 184.138 364.396 184.817 361.2L183.838 360.992ZM193.391 359.659C190.564 361.292 187.327 361.543 184.482 360.62L184.173 361.572C187.28 362.579 190.812 362.304 193.891 360.525L193.391 359.659ZM197.499 344.921C200.452 350.033 198.626 356.635 193.391 359.659L193.891 360.525C199.588 357.234 201.603 350.027 198.364 344.421L197.499 344.921ZM189.902 339.754C192.999 340.235 195.832 342.037 197.499 344.921L198.364 344.421C196.538 341.26 193.434 339.291 190.056 338.765L189.902 339.754ZM188.828 329.924C190.493 332.806 190.64 336.158 189.512 339.08L190.445 339.439C191.675 336.252 191.519 332.582 189.694 329.423L188.828 329.924ZM174.01 326.12C179.244 323.096 185.875 324.812 188.828 329.924L189.694 329.423C186.455 323.817 179.206 321.963 173.509 325.254L174.01 326.12ZM169.915 330.231C170.853 328.581 172.235 327.145 174.01 326.12L173.509 325.254C171.578 326.37 170.069 327.936 169.046 329.737L169.915 330.231ZM158 326.234C162.988 325.254 166.621 327.445 169.102 330.311L169.858 329.656C167.218 326.607 163.247 324.184 157.808 325.252L158 326.234ZM155.887 329.056C155.761 327.76 156.712 326.487 158 326.234L157.808 325.252C156.018 325.604 154.716 327.34 154.891 329.152L155.887 329.056ZM158.351 330.879C157.1 331.125 156.008 330.313 155.887 329.056L154.891 329.152C155.07 331.002 156.718 332.219 158.544 331.86L158.351 330.879ZM164.148 332.338C162.516 331.03 160.589 330.44 158.351 330.879L158.544 331.86C160.467 331.483 162.099 331.977 163.522 333.118L164.148 332.338ZM159.163 334.689C160.659 333.825 162.268 333.348 163.873 333.227L163.797 332.229C162.045 332.362 160.291 332.882 158.663 333.823L159.163 334.689ZM155.056 349.426C152.102 344.314 153.929 337.713 159.163 334.689L158.663 333.823C152.966 337.114 150.951 344.32 154.19 349.926L155.056 349.426ZM162.663 354.595C159.562 354.116 156.724 352.314 155.056 349.426L154.19 349.926C156.018 353.091 159.127 355.061 162.51 355.584L162.663 354.595Z" fill="black" fill-opacity="0.2" style="fill:black;fill-opacity:0.2;"/>
<path fill-rule="evenodd" clip-rule="evenodd" d="M99.5892 401.084C98.4085 404.139 98.5592 407.652 100.305 410.674C103.401 416.034 110.341 417.819 115.807 414.661C118.762 412.954 120.681 410.152 121.33 407.09C124.306 408.055 127.691 407.792 130.644 406.086C136.11 402.928 138.03 396.024 134.934 390.665C133.188 387.643 130.219 385.757 126.982 385.254C128.16 382.199 128.009 378.688 126.264 375.668C123.168 370.308 116.228 368.523 110.762 371.681C108.909 372.751 107.464 374.252 106.483 375.978C103.922 373.02 100.12 370.713 94.9069 371.737C93.3677 372.039 92.2417 373.544 92.3919 375.098C92.542 376.652 93.9116 377.666 95.4508 377.364C97.531 376.955 99.3106 377.498 100.838 378.722C99.1595 378.849 97.4774 379.348 95.9158 380.25C90.4504 383.407 88.5297 390.311 91.6257 395.67C93.3737 398.696 96.3474 400.583 99.5892 401.084Z" fill="white" style="fill:white;fill-opacity:1;"/>
<path d="M99.5892 401.084L100.056 401.264L100.279 400.684L99.6655 400.589L99.5892 401.084ZM121.33 407.09L121.485 406.614L120.957 406.443L120.841 406.986L121.33 407.09ZM126.982 385.254L126.515 385.074L126.292 385.652L126.905 385.748L126.982 385.254ZM106.483 375.978L106.105 376.305L106.568 376.84L106.918 376.225L106.483 375.978ZM94.9069 371.737L94.8105 371.246L94.9069 371.737ZM92.3919 375.098L92.8895 375.05L92.8895 375.05L92.3919 375.098ZM95.4508 377.364L95.3544 376.873L95.3544 376.873L95.4508 377.364ZM100.838 378.722L100.876 379.221L102.14 379.125L101.151 378.332L100.838 378.722ZM100.738 410.424C99.072 407.541 98.9263 404.186 100.056 401.264L99.1228 400.903C97.8907 404.092 98.0463 407.764 99.872 410.925L100.738 410.424ZM115.556 414.229C110.322 417.252 103.691 415.537 100.738 410.424L99.872 410.925C103.111 416.531 110.36 418.385 116.057 415.094L115.556 414.229ZM120.841 406.986C120.22 409.913 118.385 412.594 115.556 414.229L116.057 415.094C119.138 413.314 121.141 410.39 121.82 407.194L120.841 406.986ZM130.394 405.653C127.567 407.286 124.33 407.537 121.485 406.614L121.176 407.566C124.283 408.573 127.814 408.298 130.894 406.519L130.394 405.653ZM134.501 390.915C137.455 396.027 135.628 402.629 130.394 405.653L130.894 406.519C136.591 403.228 138.606 396.021 135.367 390.415L134.501 390.915ZM126.905 385.748C130.001 386.229 132.835 388.031 134.501 390.915L135.367 390.415C133.541 387.254 130.437 385.285 127.058 384.76L126.905 385.748ZM125.831 375.918C127.496 378.8 127.642 382.152 126.515 385.074L127.448 385.434C128.678 382.246 128.522 378.576 126.697 375.418L125.831 375.918ZM111.012 372.114C116.247 369.09 122.878 370.806 125.831 375.918L126.697 375.418C123.458 369.811 116.209 367.957 110.512 371.248L111.012 372.114ZM106.918 376.225C107.856 374.575 109.238 373.139 111.012 372.114L110.512 371.248C108.581 372.364 107.072 373.93 106.048 375.731L106.918 376.225ZM95.0032 372.228C99.9904 371.248 103.623 373.439 106.105 376.305L106.861 375.651C104.22 372.601 100.25 370.178 94.8105 371.246L95.0032 372.228ZM92.8895 375.05C92.7643 373.754 93.7145 372.481 95.0032 372.228L94.8105 371.246C93.0208 371.598 91.719 373.334 91.8942 375.146L92.8895 375.05ZM95.3544 376.873C94.1024 377.119 93.011 376.307 92.8895 375.05L91.8942 375.146C92.073 376.996 93.7207 378.213 95.5471 377.854L95.3544 376.873ZM101.151 378.332C99.5191 377.024 97.5921 376.434 95.3544 376.873L95.5471 377.854C97.4698 377.477 99.102 377.971 100.525 379.112L101.151 378.332ZM96.1659 380.683C97.6614 379.819 99.2707 379.342 100.876 379.221L100.8 378.224C99.0483 378.356 97.2935 378.877 95.6657 379.817L96.1659 380.683ZM92.0586 395.42C89.1054 390.308 90.9316 383.707 96.1659 380.683L95.6657 379.817C89.9693 383.108 87.954 390.314 91.1927 395.921L92.0586 395.42ZM99.6655 400.589C96.5649 400.111 93.7267 398.308 92.0586 395.42L91.1927 395.921C93.0208 399.085 96.1299 401.055 99.5128 401.578L99.6655 400.589Z" fill="black" fill-opacity="0.2" style="fill:black;fill-opacity:0.2;"/>
<path fill-rule="evenodd" clip-rule="evenodd" d="M217.586 378.299C216.406 375.244 216.556 371.73 218.302 368.708C221.398 363.349 228.338 361.564 233.804 364.721C236.759 366.429 238.678 369.231 239.328 372.293C242.303 371.328 245.688 371.591 248.641 373.297C254.107 376.454 256.027 383.358 252.931 388.718C251.185 391.74 248.216 393.626 244.979 394.129C246.157 397.184 246.006 400.695 244.261 403.715C241.165 409.074 234.225 410.859 228.759 407.702C226.907 406.632 225.461 405.131 224.48 403.405C221.919 406.363 218.117 408.67 212.904 407.646C211.365 407.343 210.239 405.839 210.389 404.285C210.539 402.731 211.909 401.717 213.448 402.019C215.528 402.428 217.308 401.885 218.835 400.661C217.157 400.534 215.475 400.035 213.913 399.133C208.448 395.976 206.527 389.072 209.623 383.712C211.371 380.686 214.345 378.8 217.586 378.299Z" fill="white" style="fill:white;fill-opacity:1;"/>
<path d="M217.586 378.299L218.053 378.119L218.277 378.698L217.663 378.793L217.586 378.299ZM239.328 372.293L239.482 372.768L238.954 372.94L238.838 372.397L239.328 372.293ZM244.979 394.129L244.512 394.309L244.289 393.73L244.902 393.635L244.979 394.129ZM224.48 403.405L224.102 403.078L224.565 402.543L224.915 403.158L224.48 403.405ZM212.904 407.646L212.808 408.136L212.904 407.646ZM210.389 404.285L210.887 404.333L210.887 404.333L210.389 404.285ZM213.448 402.019L213.351 402.51L213.351 402.51L213.448 402.019ZM218.835 400.661L218.873 400.162L220.137 400.258L219.148 401.051L218.835 400.661ZM218.735 368.958C217.069 371.842 216.923 375.196 218.053 378.119L217.12 378.479C215.888 375.291 216.043 371.619 217.869 368.458L218.735 368.958ZM233.554 365.154C228.319 362.13 221.688 363.846 218.735 368.958L217.869 368.458C221.108 362.852 228.357 360.998 234.054 364.288L233.554 365.154ZM238.838 372.397C238.217 369.47 236.383 366.789 233.554 365.154L234.054 364.288C237.135 366.069 239.138 368.993 239.817 372.189L238.838 372.397ZM248.391 373.73C245.564 372.097 242.327 371.846 239.482 372.768L239.173 371.817C242.28 370.81 245.812 371.085 248.891 372.864L248.391 373.73ZM252.499 388.467C255.452 383.355 253.626 376.754 248.391 373.73L248.891 372.864C254.588 376.155 256.603 383.361 253.364 388.968L252.499 388.467ZM244.902 393.635C247.999 393.154 250.832 391.352 252.499 388.467L253.364 388.968C251.538 392.129 248.434 394.098 245.056 394.623L244.902 393.635ZM243.828 403.465C245.493 400.583 245.64 397.231 244.512 394.309L245.445 393.949C246.675 397.137 246.519 400.807 244.694 403.965L243.828 403.465ZM229.01 407.269C234.244 410.293 240.875 408.577 243.828 403.465L244.694 403.965C241.455 409.572 234.206 411.426 228.509 408.135L229.01 407.269ZM224.915 403.158C225.853 404.808 227.235 406.244 229.01 407.269L228.509 408.135C226.578 407.019 225.069 405.453 224.046 403.652L224.915 403.158ZM213 407.155C217.988 408.135 221.621 405.944 224.102 403.078L224.858 403.732C222.218 406.782 218.247 409.205 212.808 408.136L213 407.155ZM210.887 404.333C210.761 405.629 211.712 406.902 213 407.155L212.808 408.136C211.018 407.785 209.716 406.049 209.891 404.237L210.887 404.333ZM213.351 402.51C212.1 402.264 211.008 403.076 210.887 404.333L209.891 404.237C210.07 402.386 211.718 401.17 213.544 401.528L213.351 402.51ZM219.148 401.051C217.516 402.359 215.589 402.949 213.351 402.51L213.544 401.528C215.467 401.906 217.099 401.411 218.522 400.271L219.148 401.051ZM214.163 398.7C215.659 399.564 217.268 400.041 218.873 400.162L218.797 401.159C217.045 401.027 215.291 400.506 213.663 399.566L214.163 398.7ZM210.056 383.963C207.102 389.075 208.929 395.676 214.163 398.7L213.663 399.566C207.966 396.275 205.951 389.069 209.19 383.462L210.056 383.963ZM217.663 378.793C214.562 379.272 211.724 381.075 210.056 383.963L209.19 383.462C211.018 380.298 214.127 378.328 217.51 377.805L217.663 378.793Z" fill="black" fill-opacity="0.2" style="fill:black;fill-opacity:0.2;"/>
<path fill-rule="evenodd" clip-rule="evenodd" d="M23.9957 367.224C22.3844 370.074 22.0222 373.569 23.3079 376.812C25.5893 382.565 32.1951 385.343 38.0624 383.017C41.235 381.759 43.5421 379.266 44.6313 376.332C47.4345 377.72 50.8211 377.954 53.9921 376.696C59.8594 374.37 62.7665 367.82 60.4851 362.066C59.1993 358.824 56.5399 356.526 53.4131 355.555C55.0223 352.706 55.3834 349.212 54.0984 345.972C51.817 340.218 45.2112 337.44 39.3439 339.767C37.7723 340.39 36.4132 341.316 35.3092 342.449C33.3265 338.582 29.7187 334.827 23.6463 335.116C22.0795 335.191 20.7461 336.515 20.6681 338.074C20.5901 339.634 21.797 340.837 23.3638 340.762C26.5628 340.61 28.7664 342.505 30.2753 345.553C28.0718 345.042 25.6835 345.176 23.4064 346.079C17.5391 348.406 14.632 354.956 16.9134 360.709C18.2006 363.955 20.8645 366.255 23.9957 367.224Z" fill="white" style="fill:white;fill-opacity:1;"/>
<path d="M23.9957 367.224L24.431 367.47L24.7364 366.93L24.1436 366.746L23.9957 367.224ZM44.6313 376.332L44.8533 375.884L44.3558 375.637L44.1626 376.158L44.6313 376.332ZM53.4131 355.555L52.9778 355.309L52.673 355.849L53.2648 356.033L53.4131 355.555ZM35.3092 342.449L34.8643 342.677L35.1817 343.296L35.6673 342.798L35.3092 342.449ZM23.6463 335.116L23.6701 335.616L23.6701 335.616L23.6463 335.116ZM20.6681 338.074L21.1674 338.099L21.1674 338.099L20.6681 338.074ZM23.3638 340.762L23.3876 341.262L23.3638 340.762ZM30.2753 345.553L30.1625 346.04L31.1926 346.278L30.7234 345.331L30.2753 345.553ZM23.7727 376.628C22.5458 373.533 22.8898 370.196 24.431 367.47L23.5605 366.978C21.879 369.952 21.4986 373.605 22.8431 376.996L23.7727 376.628ZM37.8781 382.552C32.2588 384.78 25.9489 382.116 23.7727 376.628L22.8431 376.996C25.2296 383.015 32.1313 385.906 38.2467 383.482L37.8781 382.552ZM44.1626 376.158C43.1212 378.963 40.9151 381.348 37.8781 382.552L38.2467 383.482C41.5549 382.17 43.9629 379.569 45.1001 376.506L44.1626 376.158ZM53.8078 376.232C50.7724 377.435 47.5332 377.211 44.8533 375.884L44.4094 376.78C47.3357 378.229 50.8699 378.472 54.1764 377.161L53.8078 376.232ZM60.0203 362.251C62.1965 367.739 59.4271 374.004 53.8078 376.232L54.1764 377.161C60.2918 374.736 63.3364 367.901 60.9499 361.882L60.0203 362.251ZM53.2648 356.033C56.2554 356.961 58.7934 359.156 60.0203 362.251L60.9499 361.882C59.6053 358.491 56.8243 356.091 53.5614 355.078L53.2648 356.033ZM53.6336 346.156C54.8598 349.248 54.5168 352.584 52.9778 355.309L53.8485 355.801C55.5277 352.828 55.907 349.176 54.5632 345.787L53.6336 346.156ZM39.5282 340.231C45.1475 338.003 51.4574 340.668 53.6336 346.156L54.5632 345.787C52.1767 339.769 45.275 336.877 39.1596 339.302L39.5282 340.231ZM35.6673 342.798C36.7229 341.715 38.0231 340.828 39.5282 340.231L39.1596 339.302C37.5215 339.951 36.1034 340.917 34.9511 342.1L35.6673 342.798ZM23.6701 335.616C29.4714 335.339 32.9308 338.906 34.8643 342.677L35.7541 342.22C33.7222 338.258 29.9659 334.315 23.6225 334.617L23.6701 335.616ZM21.1674 338.099C21.2325 336.799 22.3583 335.678 23.6701 335.616L23.6225 334.617C21.8007 334.704 20.2596 336.231 20.1687 338.049L21.1674 338.099ZM23.34 340.263C22.0656 340.324 21.1043 339.361 21.1674 338.099L20.1687 338.049C20.0758 339.906 21.5284 341.35 23.3876 341.262L23.34 340.263ZM30.7234 345.331C29.1648 342.183 26.8115 340.097 23.34 340.263L23.3876 341.262C26.314 341.122 28.368 342.827 29.8272 345.774L30.7234 345.331ZM23.5907 346.544C25.7709 345.679 28.0554 345.552 30.1625 346.04L30.3881 345.065C28.0881 344.533 25.596 344.673 23.2221 345.614L23.5907 346.544ZM17.3782 360.525C15.202 355.037 17.9714 348.772 23.5907 346.544L23.2221 345.614C17.1067 348.039 14.0621 354.875 16.4486 360.894L17.3782 360.525ZM24.1436 366.746C21.1487 365.819 18.6065 363.623 17.3782 360.525L16.4486 360.894C17.7947 364.288 20.5803 366.69 23.8479 367.701L24.1436 366.746Z" fill="black" fill-opacity="0.2" style="fill:black;fill-opacity:0.2;"/>
<path fill-rule="evenodd" clip-rule="evenodd" d="M89.996 44.2175C88.3847 47.0674 88.0224 50.563 89.3082 53.8055C91.5895 59.5589 98.1953 62.3369 104.063 60.0104C107.235 58.7524 109.542 56.2596 110.632 53.3255C113.435 54.7139 116.821 54.9475 119.992 53.6901C125.86 51.3636 128.767 44.8136 126.485 39.0601C125.2 35.8174 122.54 33.5199 119.413 32.5487C121.022 29.6996 121.384 26.2061 120.099 22.9653C117.817 17.2119 111.211 14.4338 105.344 16.7603C103.773 17.3835 102.413 18.3096 101.309 19.4423C99.3267 15.576 95.7189 11.8208 89.6465 12.11C88.0797 12.1847 86.7463 13.509 86.6683 15.0681C86.5903 16.6272 87.7972 17.8306 89.3641 17.7559C92.563 17.6035 94.7666 19.4988 96.2756 22.5462C94.072 22.0359 91.6837 22.1699 89.4066 23.0728C83.5393 25.3994 80.6323 31.9494 82.9136 37.7029C84.2008 40.9491 86.8648 43.2482 89.996 44.2175Z" fill="white" style="fill:white;fill-opacity:1;"/>
<path d="M89.996 44.2175L90.4312 44.4636L90.7366 43.9234L90.1438 43.7399L89.996 44.2175ZM110.632 53.3255L110.854 52.8774L110.356 52.631L110.163 53.1515L110.632 53.3255ZM119.413 32.5487L118.978 32.3028L118.673 32.8424L119.265 33.0262L119.413 32.5487ZM101.309 19.4423L100.865 19.6705L101.182 20.2895L101.667 19.7913L101.309 19.4423ZM89.6465 12.11L89.6703 12.6095L89.6703 12.6095L89.6465 12.11ZM86.6683 15.0681L87.1677 15.0931L87.1677 15.0931L86.6683 15.0681ZM89.3641 17.7559L89.3879 18.2554L89.3641 17.7559ZM96.2756 22.5462L96.1628 23.0333L97.1928 23.2718L96.7236 22.3243L96.2756 22.5462ZM89.7729 53.6212C88.5461 50.5271 88.8901 47.1894 90.4312 44.4636L89.5607 43.9714C87.8792 46.9454 87.4988 50.5989 88.8434 53.9898L89.7729 53.6212ZM103.878 59.5456C98.2591 61.7738 91.9491 59.1093 89.7729 53.6212L88.8434 53.9898C91.2299 60.0084 98.1315 62.9001 104.247 60.4752L103.878 59.5456ZM110.163 53.1515C109.121 55.9566 106.915 58.3414 103.878 59.5456L104.247 60.4752C107.555 59.1635 109.963 56.5625 111.1 53.4995L110.163 53.1515ZM119.808 53.2253C116.773 54.429 113.533 54.2048 110.854 52.8774L110.41 53.7735C113.336 55.223 116.87 55.466 120.177 54.1549L119.808 53.2253ZM126.021 39.2444C128.197 44.7326 125.427 50.9972 119.808 53.2253L120.177 54.1549C126.292 51.7301 129.337 44.8945 126.95 38.8758L126.021 39.2444ZM119.265 33.0262C122.256 33.9551 124.794 36.1501 126.021 39.2444L126.95 38.8758C125.606 35.4847 122.825 33.0847 119.562 32.0712L119.265 33.0262ZM119.634 23.1496C120.86 26.242 120.517 29.5778 118.978 32.3028L119.849 32.7946C121.528 29.8214 121.907 26.1701 120.563 22.781L119.634 23.1496ZM105.528 17.2251C111.148 14.997 117.458 17.6614 119.634 23.1496L120.563 22.781C118.177 16.7623 111.275 13.8706 105.16 16.2955L105.528 17.2251ZM101.667 19.7913C102.723 18.7082 104.023 17.8219 105.528 17.2251L105.16 16.2955C103.522 16.945 102.104 17.9111 100.951 19.0933L101.667 19.7913ZM89.6703 12.6095C95.4716 12.3331 98.931 15.9001 100.865 19.6705L101.754 19.2141C99.7225 15.252 95.9662 11.3084 89.6227 11.6106L89.6703 12.6095ZM87.1677 15.0931C87.2327 13.7929 88.3585 12.672 89.6703 12.6095L89.6227 11.6106C87.8009 11.6974 86.2599 13.2251 86.1689 15.0431L87.1677 15.0931ZM89.3403 17.2565C88.0659 17.3172 87.1046 16.3545 87.1677 15.0931L86.1689 15.0431C86.076 16.8999 87.5286 18.3439 89.3879 18.2554L89.3403 17.2565ZM96.7236 22.3243C95.165 19.1765 92.8118 17.0911 89.3403 17.2565L89.3879 18.2554C92.3142 18.116 94.3683 19.8211 95.8275 22.768L96.7236 22.3243ZM89.5909 23.5376C91.7711 22.6731 94.0557 22.5453 96.1628 23.0333L96.3884 22.0591C94.0883 21.5264 91.5963 21.6667 89.2223 22.6081L89.5909 23.5376ZM83.3784 37.5186C81.2022 32.0304 83.9717 25.7658 89.5909 23.5376L89.2223 22.6081C83.1069 25.0329 80.0623 31.8685 82.4488 37.8872L83.3784 37.5186ZM90.1438 43.7399C87.149 42.8127 84.6067 40.6163 83.3784 37.5186L82.4488 37.8872C83.7949 41.282 86.5806 43.6836 89.8481 44.6951L90.1438 43.7399Z" fill="black" fill-opacity="0.2" style="fill:black;fill-opacity:0.2;"/>
<path fill-rule="evenodd" clip-rule="evenodd" d="M270.621 320.215C272.233 323.065 272.595 326.56 271.309 329.803C269.028 335.556 262.422 338.334 256.555 336.008C253.382 334.75 251.075 332.257 249.986 329.323C247.183 330.711 243.796 330.945 240.625 329.687C234.758 327.361 231.851 320.811 234.132 315.057C235.418 311.815 238.077 309.517 241.204 308.546C239.595 305.697 239.234 302.203 240.519 298.962C242.8 293.209 249.406 290.431 255.273 292.757C256.845 293.381 258.204 294.307 259.308 295.439C261.291 291.573 264.899 287.818 270.971 288.107C272.538 288.182 273.871 289.506 273.949 291.065C274.027 292.624 272.82 293.828 271.253 293.753C268.054 293.601 265.851 295.496 264.342 298.543C266.545 298.033 268.934 298.167 271.211 299.07C277.078 301.396 279.985 307.947 277.704 313.7C276.417 316.946 273.753 319.245 270.621 320.215Z" fill="white" style="fill:white;fill-opacity:1;"/>
<path d="M270.621 320.215L270.186 320.461L269.881 319.92L270.474 319.737L270.621 320.215ZM249.986 329.323L249.764 328.874L250.261 328.628L250.455 329.149L249.986 329.323ZM241.204 308.546L241.639 308.3L241.944 308.839L241.352 309.023L241.204 308.546ZM259.308 295.439L259.753 295.668L259.435 296.287L258.95 295.788L259.308 295.439ZM270.971 288.107L270.947 288.607L270.947 288.607L270.971 288.107ZM273.949 291.065L273.45 291.09L273.45 291.09L273.949 291.065ZM271.253 293.753L271.23 294.252L271.253 293.753ZM264.342 298.543L264.455 299.03L263.425 299.269L263.894 298.321L264.342 298.543ZM270.844 329.618C272.071 326.524 271.727 323.186 270.186 320.461L271.057 319.968C272.738 322.943 273.119 326.596 271.774 329.987L270.844 329.618ZM256.739 335.543C262.358 337.771 268.668 335.106 270.844 329.618L271.774 329.987C269.388 336.006 262.486 338.897 256.37 336.472L256.739 335.543ZM250.455 329.149C251.496 331.954 253.702 334.338 256.739 335.543L256.37 336.472C253.062 335.161 250.654 332.56 249.517 329.497L250.455 329.149ZM240.809 329.222C243.845 330.426 247.084 330.202 249.764 328.874L250.208 329.771C247.281 331.22 243.747 331.463 240.441 330.152L240.809 329.222ZM234.597 315.241C232.421 320.73 235.19 326.994 240.809 329.222L240.441 330.152C234.325 327.727 231.281 320.892 233.667 314.873L234.597 315.241ZM241.352 309.023C238.362 309.952 235.824 312.147 234.597 315.241L233.667 314.873C235.012 311.482 237.793 309.082 241.056 308.068L241.352 309.023ZM240.984 299.147C239.757 302.239 240.1 305.575 241.639 308.3L240.769 308.792C239.089 305.818 238.71 302.167 240.054 298.778L240.984 299.147ZM255.089 293.222C249.47 290.994 243.16 293.658 240.984 299.147L240.054 298.778C242.441 292.759 249.342 289.868 255.458 292.293L255.089 293.222ZM258.95 295.788C257.894 294.705 256.594 293.819 255.089 293.222L255.458 292.293C257.096 292.942 258.514 293.908 259.666 295.09L258.95 295.788ZM270.947 288.607C265.146 288.33 261.686 291.897 259.753 295.668L258.863 295.211C260.895 291.249 264.651 287.306 270.995 287.608L270.947 288.607ZM273.45 291.09C273.385 289.79 272.259 288.669 270.947 288.607L270.995 287.608C272.817 287.694 274.358 289.222 274.449 291.04L273.45 291.09ZM271.277 293.254C272.552 293.314 273.513 292.352 273.45 291.09L274.448 291.04C274.541 292.897 273.089 294.341 271.23 294.252L271.277 293.254ZM263.894 298.321C265.452 295.174 267.806 293.088 271.277 293.254L271.23 294.252C268.303 294.113 266.249 295.818 264.79 298.765L263.894 298.321ZM271.026 299.535C268.846 298.67 266.562 298.542 264.455 299.03L264.229 298.056C266.529 297.523 269.021 297.664 271.395 298.605L271.026 299.535ZM277.239 313.516C279.415 308.027 276.646 301.763 271.026 299.535L271.395 298.605C277.51 301.03 280.555 307.866 278.169 313.884L277.239 313.516ZM270.474 319.737C273.468 318.81 276.011 316.613 277.239 313.516L278.169 313.884C276.823 317.279 274.037 319.681 270.769 320.692L270.474 319.737Z" fill="black" fill-opacity="0.2" style="fill:black;fill-opacity:0.2;"/>
<path fill-rule="evenodd" clip-rule="evenodd" d="M115.619 305.011C117.232 302.16 117.596 298.662 116.309 295.418C114.028 289.665 107.422 286.886 101.555 289.213C98.3822 290.471 96.0751 292.964 94.9858 295.898C92.1827 294.51 88.7961 294.276 85.6251 295.533C79.7578 297.86 76.8507 304.41 79.1321 310.163C80.4187 313.408 83.081 315.707 86.2106 316.677C84.5992 319.527 84.237 323.022 85.5227 326.265C87.804 332.018 94.4098 334.796 100.277 332.47C101.911 331.822 103.316 330.846 104.443 329.651C106.453 333.425 110.034 337.009 115.971 336.726C117.538 336.652 118.872 335.327 118.95 333.768C119.028 332.209 117.821 331.006 116.254 331.08C113.213 331.225 111.072 329.52 109.571 326.734C111.712 327.184 114.015 327.029 116.215 326.157C122.082 323.831 124.989 317.281 122.708 311.527C121.42 308.279 118.753 305.979 115.619 305.011Z" fill="white" style="fill:white;fill-opacity:1;"/>
<path d="M115.619 305.011L115.184 304.764L114.878 305.305L115.471 305.488L115.619 305.011ZM94.9858 295.898L94.7639 296.346L95.2614 296.592L95.4546 296.072L94.9858 295.898ZM86.2106 316.677L86.6458 316.923L86.9512 316.383L86.3586 316.199L86.2106 316.677ZM104.443 329.651L104.884 329.416L104.557 328.801L104.079 329.308L104.443 329.651ZM115.971 336.726L115.995 337.226L115.995 337.226L115.971 336.726ZM118.95 333.768L118.45 333.743L118.45 333.743L118.95 333.768ZM116.254 331.08L116.278 331.58L116.278 331.58L116.254 331.08ZM109.571 326.734L109.674 326.245L108.621 326.023L109.131 326.971L109.571 326.734ZM115.844 295.602C117.072 298.698 116.727 302.038 115.184 304.764L116.054 305.257C117.738 302.282 118.119 298.626 116.774 295.234L115.844 295.602ZM101.739 289.678C107.358 287.45 113.668 290.114 115.844 295.602L116.774 295.234C114.388 289.215 107.486 286.323 101.37 288.748L101.739 289.678ZM95.4546 296.072C96.496 293.267 98.7021 290.882 101.739 289.678L101.37 288.748C98.0623 290.06 95.6542 292.661 94.5171 295.724L95.4546 296.072ZM85.8094 295.998C88.8448 294.794 92.0839 295.019 94.7639 296.346L95.2078 295.45C92.2814 294 88.7473 293.757 85.4408 295.068L85.8094 295.998ZM79.5969 309.979C77.4207 304.491 80.1901 298.226 85.8094 295.998L85.4408 295.068C79.3254 297.493 76.2808 304.329 78.6673 310.348L79.5969 309.979ZM86.3586 316.199C83.3653 315.271 80.8247 313.075 79.5969 309.979L78.6673 310.348C80.0128 313.741 82.7967 316.142 86.0626 317.154L86.3586 316.199ZM85.9875 326.081C84.7606 322.986 85.1046 319.649 86.6458 316.923L85.7753 316.431C84.0938 319.405 83.7133 323.058 85.0579 326.449L85.9875 326.081ZM100.093 332.005C94.4736 334.233 88.1636 331.569 85.9875 326.081L85.0579 326.449C87.4444 332.468 94.3461 335.359 100.461 332.935L100.093 332.005ZM104.079 329.308C103.002 330.451 101.658 331.384 100.093 332.005L100.461 332.935C102.165 332.259 103.631 331.241 104.807 329.994L104.079 329.308ZM115.948 336.227C110.274 336.497 106.842 333.092 104.884 329.416L104.002 329.886C106.063 333.758 109.794 337.521 115.995 337.226L115.948 336.227ZM118.45 333.743C118.385 335.043 117.259 336.164 115.948 336.227L115.995 337.226C117.817 337.139 119.358 335.611 119.449 333.793L118.45 333.743ZM116.278 331.58C117.552 331.519 118.513 332.482 118.45 333.743L119.449 333.793C119.542 331.936 118.089 330.492 116.23 330.581L116.278 331.58ZM109.131 326.971C110.688 329.863 112.981 331.737 116.278 331.58L116.23 330.581C113.445 330.714 111.455 329.178 110.012 326.497L109.131 326.971ZM116.03 325.693C113.924 326.528 111.721 326.675 109.674 326.245L109.469 327.223C111.703 327.693 114.106 327.531 116.399 326.622L116.03 325.693ZM122.243 311.712C124.419 317.2 121.65 323.464 116.03 325.693L116.399 326.622C122.514 324.197 125.559 317.362 123.173 311.343L122.243 311.712ZM115.471 305.488C118.469 306.414 121.014 308.612 122.243 311.712L123.173 311.343C121.825 307.946 119.037 305.543 115.766 304.533L115.471 305.488Z" fill="black" fill-opacity="0.2" style="fill:black;fill-opacity:0.2;"/>
<path fill-rule="evenodd" clip-rule="evenodd" d="M44.6188 74.0138C46.2324 71.163 46.5957 67.6654 45.3093 64.4211C43.0279 58.6677 36.4221 55.8896 30.5548 58.2161C27.3822 59.4741 25.0751 61.967 23.9858 64.9011C21.1827 63.5127 17.7961 63.2791 14.6251 64.5364C8.75775 66.863 5.85072 73.413 8.13207 79.1665C9.41875 82.4114 12.081 84.7099 15.2106 85.6799C13.5992 88.5299 13.237 92.0255 14.5227 95.268C16.804 101.021 23.4098 103.799 29.2772 101.473C30.9115 100.825 32.3161 99.8492 33.4429 98.6543C35.4525 102.428 39.0338 106.012 44.9714 105.729C46.5382 105.655 47.8716 104.33 47.9496 102.771C48.0276 101.212 46.8207 100.009 45.2539 100.084C42.2132 100.228 40.0718 98.5232 38.5715 95.737C40.7118 96.1874 43.0151 96.0326 45.2147 95.1605C51.082 92.834 53.9891 86.2839 51.7077 80.5305C50.4196 77.2819 47.7528 74.982 44.6188 74.0138Z" fill="white" style="fill:white;fill-opacity:1;"/>
<path d="M44.6188 74.0138L44.1836 73.7675L43.8776 74.3082L44.4712 74.4915L44.6188 74.0138ZM23.9858 64.9011L23.7639 65.3492L24.2614 65.5955L24.4546 65.0751L23.9858 64.9011ZM15.2106 85.6799L15.6458 85.926L15.9512 85.386L15.3586 85.2023L15.2106 85.6799ZM33.4429 98.6543L33.8842 98.4193L33.5569 97.8046L33.0791 98.3113L33.4429 98.6543ZM44.9714 105.729L44.9952 106.229L44.9952 106.229L44.9714 105.729ZM47.9496 102.771L47.4502 102.746L47.4502 102.746L47.9496 102.771ZM45.2539 100.084L45.2776 100.583L45.2776 100.583L45.2539 100.084ZM38.5715 95.737L38.6744 95.2478L37.6207 95.026L38.1312 95.9741L38.5715 95.737ZM44.8445 64.6054C46.072 67.7012 45.727 71.0408 44.1836 73.7675L45.0539 74.2601C46.7378 71.2852 47.1194 67.6296 45.7741 64.2368L44.8445 64.6054ZM30.7391 58.6809C36.3584 56.4528 42.6683 59.1172 44.8445 64.6054L45.7741 64.2368C43.3876 58.2181 36.4859 55.3265 30.3705 57.7513L30.7391 58.6809ZM24.4546 65.0751C25.496 62.27 27.7021 59.8852 30.7391 58.6809L30.3705 57.7513C27.0623 59.0631 24.6542 61.6641 23.5171 64.7271L24.4546 65.0751ZM14.8094 65.0012C17.8448 63.7976 21.0839 64.0217 23.7639 65.3492L24.2078 64.453C21.2814 63.0036 17.7473 62.7606 14.4408 64.0716L14.8094 65.0012ZM8.59686 78.9822C6.42069 73.494 9.19012 67.2294 14.8094 65.0012L14.4408 64.0716C8.32539 66.4965 5.28075 73.3321 7.66727 79.3508L8.59686 78.9822ZM15.3586 85.2023C12.3653 84.2745 9.82466 82.0786 8.59686 78.9822L7.66727 79.3508C9.01283 82.7442 11.7967 85.1452 15.0626 86.1575L15.3586 85.2023ZM14.9875 95.0837C13.7606 91.9895 14.1046 88.6519 15.6458 85.926L14.7753 85.4338C13.0938 88.4079 12.7133 92.0614 14.0579 95.4523L14.9875 95.0837ZM29.0929 101.008C23.4736 103.236 17.1636 100.572 14.9875 95.0837L14.0579 95.4523C16.4444 101.471 23.3461 104.363 29.4615 101.938L29.0929 101.008ZM33.0791 98.3113C32.0016 99.4539 30.658 100.388 29.0929 101.008L29.4615 101.938C31.165 101.262 32.6305 100.245 33.8067 98.9974L33.0791 98.3113ZM44.9476 105.23C39.2739 105.5 35.8418 102.095 33.8842 98.4193L33.0016 98.8893C35.0632 102.761 38.7937 106.524 44.9952 106.229L44.9476 105.23ZM47.4502 102.746C47.3852 104.047 46.2594 105.168 44.9476 105.23L44.9952 106.229C46.817 106.142 48.358 104.614 48.449 102.796L47.4502 102.746ZM45.2776 100.583C46.5521 100.522 47.5134 101.485 47.4502 102.746L48.449 102.796C48.5419 100.94 47.0893 99.4956 45.2301 99.5841L45.2776 100.583ZM38.1312 95.9741C39.6883 98.8657 41.9813 100.74 45.2776 100.583L45.2301 99.5841C42.445 99.7168 40.4552 98.1808 39.0117 95.5L38.1312 95.9741ZM45.0304 94.6957C42.9244 95.5308 40.7211 95.6784 38.6744 95.2478L38.4685 96.2263C40.7026 96.6964 43.1059 96.5345 45.399 95.6253L45.0304 94.6957ZM51.2429 80.7148C53.4191 86.2029 50.6497 92.4675 45.0304 94.6957L45.399 95.6253C51.5144 93.2004 54.559 86.3648 52.1725 80.3462L51.2429 80.7148ZM44.4712 74.4915C47.4688 75.4175 50.0138 77.6149 51.2429 80.7148L52.1725 80.3462C50.8255 76.949 48.0369 74.5464 44.7664 73.5361L44.4712 74.4915Z" fill="black" fill-opacity="0.2" style="fill:black;fill-opacity:0.2;"/>
<path fill-rule="evenodd" clip-rule="evenodd" d="M238.318 9.95457C238.652 6.69585 237.581 3.34645 235.101 0.891143C230.703 -3.46308 223.537 -3.35655 219.097 1.12908C216.696 3.55456 215.583 6.76375 215.763 9.88835C212.638 9.74161 209.442 10.8868 207.043 13.311C202.602 17.7966 202.568 24.9628 206.967 29.317C209.448 31.7728 212.809 32.8096 216.064 32.4421C215.732 35.6992 216.803 39.0463 219.282 41.5003C223.681 45.8545 230.846 45.748 235.287 41.2624C236.522 40.0139 237.417 38.5578 237.97 37.0125C241.325 39.6645 246.045 41.5129 251.373 38.8698C252.778 38.1726 253.468 36.4244 252.913 34.9651C252.359 33.5058 250.771 32.888 249.366 33.5851C246.636 34.9395 243.987 34.2342 241.493 32.2796C243.636 31.8338 245.685 30.7673 247.351 29.0845C251.791 24.5988 251.825 17.4327 247.427 13.0785C244.943 10.62 241.578 9.58358 238.318 9.95457Z" fill="white" style="fill:white;fill-opacity:1;"/>
<path d="M238.318 9.95457L237.821 9.90361L237.758 10.5216L238.375 10.4514L238.318 9.95457ZM215.763 9.88835L215.739 10.3878L216.294 10.4138L216.262 9.85962L215.763 9.88835ZM216.064 32.4421L216.562 32.4929L216.625 31.8757L216.008 31.9453L216.064 32.4421ZM237.97 37.0125L238.28 36.6203L237.733 36.1885L237.499 36.8442L237.97 37.0125ZM251.373 38.8698L251.595 39.3177L251.595 39.3177L251.373 38.8698ZM252.913 34.9651L252.446 35.1426L252.446 35.1426L252.913 34.9651ZM249.366 33.5851L249.588 34.033L249.366 33.5851ZM241.493 32.2796L241.391 31.7901L240.337 32.0093L241.184 32.6732L241.493 32.2796ZM234.749 1.24648C237.116 3.58942 238.14 6.78679 237.821 9.90361L238.816 10.0055C239.164 6.60492 238.047 3.10347 235.453 0.535804L234.749 1.24648ZM219.452 1.48084C223.705 -2.81514 230.554 -2.907 234.749 1.24648L235.453 0.535804C230.852 -4.01916 223.37 -3.89796 218.741 0.777319L219.452 1.48084ZM216.262 9.85962C216.09 6.87233 217.154 3.80266 219.452 1.48084L218.741 0.777319C216.238 3.30645 215.076 6.65518 215.264 9.91707L216.262 9.85962ZM207.398 13.6628C209.695 11.3422 212.752 10.2475 215.739 10.3878L215.786 9.3889C212.524 9.23571 209.19 10.4314 206.687 12.9593L207.398 13.6628ZM207.319 28.9616C203.123 24.8082 203.145 17.9588 207.398 13.6628L206.687 12.9593C202.059 17.6345 202.014 25.1174 206.615 29.6723L207.319 28.9616ZM216.008 31.9453C212.894 32.2968 209.686 31.305 207.319 28.9616L206.615 29.6723C209.209 32.2405 212.723 33.3224 216.12 32.939L216.008 31.9453ZM219.634 41.145C217.268 38.8033 216.244 35.6081 216.562 32.4929L215.567 32.3914C215.22 35.7903 216.338 39.2894 218.93 41.8556L219.634 41.145ZM234.931 40.9106C230.678 45.2066 223.83 45.2984 219.634 41.145L218.93 41.8556C223.532 46.4106 231.014 46.2894 235.642 41.6141L234.931 40.9106ZM237.499 36.8442C236.97 38.3218 236.115 39.715 234.931 40.9106L235.642 41.6141C236.93 40.3128 237.864 38.7938 238.44 37.1809L237.499 36.8442ZM251.151 38.4219C246.06 40.9475 241.548 39.2036 238.28 36.6203L237.66 37.4048C241.102 40.1253 246.031 42.0783 251.595 39.3177L251.151 38.4219ZM252.446 35.1426C252.908 36.3596 252.327 37.8382 251.151 38.4219L251.595 39.3177C253.229 38.507 254.027 36.4893 253.381 34.7876L252.446 35.1426ZM249.588 34.033C250.731 33.466 251.998 33.962 252.446 35.1426L253.381 34.7876C252.721 33.0496 250.811 32.3099 249.143 33.1372L249.588 34.033ZM241.184 32.6732C243.773 34.7015 246.629 35.5013 249.588 34.033L249.143 33.1372C246.643 34.3777 244.202 33.7668 241.801 31.886L241.184 32.6732ZM246.996 28.7327C245.401 30.344 243.44 31.3638 241.391 31.7901L241.595 32.7691C243.831 32.3038 245.97 31.1906 247.706 29.4362L246.996 28.7327ZM247.075 13.4338C251.271 17.5873 251.248 24.4367 246.996 28.7327L247.706 29.4362C252.334 24.7609 252.38 17.2781 247.779 12.7232L247.075 13.4338ZM238.375 10.4514C241.492 10.0965 244.705 11.0878 247.075 13.4338L247.779 12.7232C245.181 10.1521 241.663 9.07063 238.262 9.45778L238.375 10.4514Z" fill="black" fill-opacity="0.2" style="fill:black;fill-opacity:0.2;"/>
<path fill-rule="evenodd" clip-rule="evenodd" d="M159.996 -10.9944C158.384 -13.8443 158.022 -17.3398 159.308 -20.5823C161.589 -26.3357 168.195 -29.1138 174.062 -26.7873C177.235 -25.5293 179.542 -23.0364 180.631 -20.1023C183.434 -21.4908 186.821 -21.7243 189.992 -20.467C195.859 -18.1405 198.766 -11.5904 196.485 -5.83698C195.199 -2.5943 192.54 -0.296752 189.413 0.674445C191.022 3.52355 191.383 7.01709 190.098 10.2579C187.817 16.0113 181.211 18.7893 175.344 16.4628C173.772 15.8397 172.413 14.9135 171.309 13.7808C169.327 17.6471 165.719 21.4024 159.646 21.1131C158.079 21.0385 156.746 19.7141 156.668 18.155C156.59 16.596 157.797 15.3926 159.364 15.4672C162.563 15.6196 164.766 13.7244 166.275 10.677C164.072 11.1873 161.683 11.0532 159.406 10.1503C153.539 7.82378 150.632 1.2737 152.913 -4.47972C154.201 -7.72599 156.865 -10.025 159.996 -10.9944Z" fill="white" style="fill:white;fill-opacity:1;"/>
<path d="M159.996 -10.9944L160.431 -11.2404L160.736 -10.7002L160.144 -10.5167L159.996 -10.9944ZM180.631 -20.1023L180.853 -19.6543L180.356 -19.4079L180.163 -19.9283L180.631 -20.1023ZM189.413 0.674445L188.978 0.920332L188.673 0.380765L189.265 0.196949L189.413 0.674445ZM171.309 13.7808L170.864 13.5527L171.182 12.9337L171.667 13.4319L171.309 13.7808ZM159.646 21.1131L159.67 20.6137L159.67 20.6137L159.646 21.1131ZM156.668 18.155L157.167 18.13L157.167 18.1301L156.668 18.155ZM159.364 15.4672L159.388 14.9678L159.364 15.4672ZM166.275 10.677L166.163 10.1899L167.193 9.95134L166.723 10.8988L166.275 10.677ZM159.773 -20.398C158.546 -17.3039 158.89 -13.9663 160.431 -11.2404L159.56 -10.7483C157.879 -13.7223 157.499 -17.3757 158.843 -20.7666L159.773 -20.398ZM173.878 -26.3225C168.259 -28.5506 161.949 -25.8862 159.773 -20.398L158.843 -20.7666C161.23 -26.7853 168.131 -29.677 174.247 -27.2521L173.878 -26.3225ZM180.163 -19.9283C179.121 -22.7335 176.915 -25.1183 173.878 -26.3225L174.247 -27.2521C177.555 -25.9403 179.963 -23.3394 181.1 -20.2764L180.163 -19.9283ZM189.808 -20.0022C186.772 -21.2058 183.533 -20.9817 180.853 -19.6543L180.409 -20.5504C183.336 -21.9998 186.87 -22.2429 190.176 -20.9318L189.808 -20.0022ZM196.02 -6.02128C198.197 -11.5095 195.427 -17.7741 189.808 -20.0022L190.176 -20.9318C196.292 -18.5069 199.336 -11.6714 196.95 -5.65268L196.02 -6.02128ZM189.265 0.196949C192.255 -0.731958 194.793 -2.92699 196.02 -6.02128L196.95 -5.65268C195.605 -2.2616 192.824 0.138453 189.561 1.15194L189.265 0.196949ZM189.634 10.0736C190.86 6.9811 190.517 3.64537 188.978 0.920332L189.848 0.428559C191.528 3.40173 191.907 7.05309 190.563 10.4422L189.634 10.0736ZM175.528 15.998C181.147 18.2262 187.457 15.5617 189.634 10.0736L190.563 10.4422C188.177 16.4608 181.275 19.3525 175.16 16.9276L175.528 15.998ZM171.667 13.4319C172.723 14.515 174.023 15.4013 175.528 15.998L175.16 16.9276C173.522 16.2781 172.103 15.3121 170.951 14.1298L171.667 13.4319ZM159.67 20.6137C165.471 20.89 168.931 17.3231 170.864 13.5527L171.754 14.009C169.722 17.9712 165.966 21.9147 159.623 21.6125L159.67 20.6137ZM157.167 18.1301C157.232 19.4302 158.358 20.5512 159.67 20.6137L159.623 21.6125C157.801 21.5258 156.26 19.998 156.169 18.18L157.167 18.1301ZM159.34 15.9667C158.066 15.906 157.104 16.8687 157.167 18.13L156.169 18.18C156.076 16.3233 157.528 14.8792 159.388 14.9678L159.34 15.9667ZM166.723 10.8988C165.165 14.0467 162.812 16.132 159.34 15.9667L159.388 14.9678C162.314 15.1072 164.368 13.4021 165.827 10.4551L166.723 10.8988ZM159.591 9.6855C161.771 10.55 164.055 10.6778 166.163 10.1899L166.388 11.1641C164.088 11.6967 161.596 11.5564 159.222 10.6151L159.591 9.6855ZM153.378 -4.29542C151.202 1.19275 153.971 7.45735 159.591 9.6855L159.222 10.6151C153.107 8.19022 150.062 1.35465 152.449 -4.66402L153.378 -4.29542ZM160.144 -10.5167C157.149 -9.58959 154.606 -7.39312 153.378 -4.29542L152.449 -4.66402C153.795 -8.05885 156.58 -10.4604 159.848 -11.472L160.144 -10.5167Z" fill="black" fill-opacity="0.2" style="fill:black;fill-opacity:0.2;"/>
<path fill-rule="evenodd" clip-rule="evenodd" d="M122.996 86.0056C121.385 83.1557 121.022 79.6602 122.308 76.4177C124.589 70.6643 131.195 67.8862 137.063 70.2127C140.235 71.4707 142.542 73.9636 143.632 76.8977C146.435 75.5092 149.821 75.2757 152.992 76.533C158.86 78.8595 161.767 85.4096 159.485 91.163C158.2 94.4057 155.54 96.7032 152.413 97.6744C154.022 100.524 154.384 104.017 153.099 107.258C150.817 113.011 144.211 115.789 138.344 113.463C136.773 112.84 135.413 111.914 134.309 110.781C132.327 114.647 128.719 118.402 122.647 118.113C121.08 118.038 119.746 116.714 119.668 115.155C119.59 113.596 120.797 112.393 122.364 112.467C125.563 112.62 127.767 110.724 129.276 107.677C127.072 108.187 124.684 108.053 122.407 107.15C116.539 104.824 113.632 98.2737 115.914 92.5203C117.201 89.274 119.865 86.975 122.996 86.0056Z" fill="white" style="fill:white;fill-opacity:1;"/>
<path d="M122.996 86.0056L123.431 85.7596L123.737 86.2998L123.144 86.4833L122.996 86.0056ZM143.632 76.8977L143.854 77.3457L143.356 77.5921L143.163 77.0717L143.632 76.8977ZM152.413 97.6744L151.978 97.9203L151.673 97.3808L152.265 97.1969L152.413 97.6744ZM134.309 110.781L133.865 110.553L134.182 109.934L134.667 110.432L134.309 110.781ZM122.647 118.113L122.67 117.614L122.67 117.614L122.647 118.113ZM119.668 115.155L120.168 115.13L120.168 115.13L119.668 115.155ZM122.364 112.467L122.388 111.968L122.364 112.467ZM129.276 107.677L129.163 107.19L130.193 106.951L129.724 107.899L129.276 107.677ZM122.773 76.602C121.546 79.6961 121.89 83.0337 123.431 85.7596L122.561 86.2517C120.879 83.2777 120.499 79.6243 121.843 76.2334L122.773 76.602ZM136.878 70.6775C131.259 68.4494 124.949 71.1138 122.773 76.602L121.843 76.2334C124.23 70.2147 131.132 67.323 137.247 69.7479L136.878 70.6775ZM143.163 77.0717C142.121 74.2665 139.915 71.8817 136.878 70.6775L137.247 69.7479C140.555 71.0597 142.963 73.6606 144.1 76.7236L143.163 77.0717ZM152.808 76.9978C149.773 75.7942 146.533 76.0183 143.854 77.3457L143.41 76.4496C146.336 75.0002 149.87 74.7571 153.177 76.0682L152.808 76.9978ZM159.021 90.9787C161.197 85.4905 158.427 79.2259 152.808 76.9978L153.177 76.0682C159.292 78.4931 162.337 85.3286 159.95 91.3473L159.021 90.9787ZM152.265 97.1969C155.256 96.268 157.794 94.073 159.021 90.9787L159.95 91.3473C158.606 94.7384 155.825 97.1385 152.562 98.1519L152.265 97.1969ZM152.634 107.074C153.86 103.981 153.517 100.645 151.978 97.9203L152.849 97.4286C154.528 100.402 154.907 104.053 153.563 107.442L152.634 107.074ZM138.528 112.998C144.148 115.226 150.458 112.562 152.634 107.074L153.563 107.442C151.177 113.461 144.275 116.353 138.16 113.928L138.528 112.998ZM134.667 110.432C135.723 111.515 137.023 112.401 138.528 112.998L138.16 113.928C136.522 113.278 135.104 112.312 133.951 111.13L134.667 110.432ZM122.67 117.614C128.472 117.89 131.931 114.323 133.865 110.553L134.754 111.009C132.722 114.971 128.966 118.915 122.623 118.613L122.67 117.614ZM120.168 115.13C120.233 116.43 121.358 117.551 122.67 117.614L122.623 118.613C120.801 118.526 119.26 116.998 119.169 115.18L120.168 115.13ZM122.34 112.967C121.066 112.906 120.105 113.869 120.168 115.13L119.169 115.18C119.076 113.323 120.529 111.879 122.388 111.968L122.34 112.967ZM129.724 107.899C128.165 111.047 125.812 113.132 122.34 112.967L122.388 111.968C125.314 112.107 127.368 110.402 128.827 107.455L129.724 107.899ZM122.591 106.686C124.771 107.55 127.056 107.678 129.163 107.19L129.388 108.164C127.088 108.697 124.596 108.556 122.222 107.615L122.591 106.686ZM116.378 92.7046C114.202 98.1928 116.972 104.457 122.591 106.686L122.222 107.615C116.107 105.19 113.062 98.3547 115.449 92.336L116.378 92.7046ZM123.144 86.4833C120.149 87.4104 117.607 89.6069 116.378 92.7046L115.449 92.336C116.795 88.9412 119.581 86.5396 122.848 85.528L123.144 86.4833Z" fill="black" fill-opacity="0.2" style="fill:black;fill-opacity:0.2;"/>
<path fill-rule="evenodd" clip-rule="evenodd" d="M204.867 76.0138C203.254 73.163 202.89 69.6654 204.177 66.4211C206.458 60.6677 213.064 57.8896 218.931 60.2161C222.104 61.4741 224.411 63.967 225.5 66.9011C228.303 65.5127 231.69 65.2791 234.861 66.5364C240.728 68.863 243.635 75.413 241.354 81.1665C240.067 84.4114 237.405 86.7099 234.275 87.6799C235.887 90.5299 236.249 94.0255 234.963 97.268C232.682 103.021 226.076 105.799 220.209 103.473C218.574 102.825 217.17 101.849 216.043 100.654C214.033 104.428 210.452 108.012 204.515 107.729C202.948 107.655 201.614 106.33 201.536 104.771C201.458 103.212 202.665 102.009 204.232 102.084C207.273 102.228 209.414 100.523 210.914 97.737C208.774 98.1874 206.471 98.0326 204.271 97.1605C198.404 94.834 195.497 88.2839 197.778 82.5305C199.066 79.2819 201.733 76.982 204.867 76.0138Z" fill="white" style="fill:white;fill-opacity:1;"/>
<path d="M204.867 76.0138L205.302 75.7675L205.608 76.3082L205.015 76.4915L204.867 76.0138ZM225.5 66.9011L225.722 67.3492L225.225 67.5955L225.031 67.0751L225.5 66.9011ZM234.275 87.6799L233.84 87.926L233.535 87.386L234.127 87.2023L234.275 87.6799ZM216.043 100.654L215.602 100.419L215.929 99.8046L216.407 100.311L216.043 100.654ZM204.515 107.729L204.491 108.229L204.491 108.229L204.515 107.729ZM201.536 104.771L202.036 104.746L202.036 104.746L201.536 104.771ZM204.232 102.084L204.208 102.583L204.208 102.583L204.232 102.084ZM210.914 97.737L210.811 97.2478L211.865 97.026L211.355 97.9741L210.914 97.737ZM204.641 66.6054C203.414 69.7012 203.759 73.0408 205.302 75.7675L204.432 76.2601C202.748 73.2852 202.367 69.6296 203.712 66.2368L204.641 66.6054ZM218.747 60.6809C213.128 58.4528 206.818 61.1172 204.641 66.6054L203.712 66.2368C206.098 60.2181 213 57.3265 219.115 59.7513L218.747 60.6809ZM225.031 67.0751C223.99 64.27 221.784 61.8852 218.747 60.6809L219.115 59.7513C222.424 61.0631 224.832 63.6641 225.969 66.7271L225.031 67.0751ZM234.677 67.0012C231.641 65.7976 228.402 66.0217 225.722 67.3492L225.278 66.453C228.204 65.0036 231.739 64.7606 235.045 66.0716L234.677 67.0012ZM240.889 80.9822C243.065 75.494 240.296 69.2294 234.677 67.0012L235.045 66.0716C241.161 68.4965 244.205 75.3321 241.819 81.3508L240.889 80.9822ZM234.127 87.2023C237.121 86.2745 239.661 84.0786 240.889 80.9822L241.819 81.3508C240.473 84.7442 237.689 87.1452 234.423 88.1575L234.127 87.2023ZM234.498 97.0837C235.725 93.9895 235.381 90.6519 233.84 87.926L234.711 87.4338C236.392 90.4079 236.773 94.0614 235.428 97.4523L234.498 97.0837ZM220.393 103.008C226.012 105.236 232.322 102.572 234.498 97.0837L235.428 97.4523C233.041 103.471 226.14 106.363 220.024 103.938L220.393 103.008ZM216.407 100.311C217.484 101.454 218.828 102.388 220.393 103.008L220.024 103.938C218.321 103.262 216.855 102.245 215.679 100.997L216.407 100.311ZM204.538 107.23C210.212 107.5 213.644 104.095 215.602 100.419L216.484 100.889C214.423 104.761 210.692 108.524 204.491 108.229L204.538 107.23ZM202.036 104.746C202.101 106.047 203.226 107.168 204.538 107.23L204.491 108.229C202.669 108.142 201.128 106.614 201.037 104.796L202.036 104.746ZM204.208 102.583C202.934 102.522 201.973 103.485 202.036 104.746L201.037 104.796C200.944 102.94 202.397 101.496 204.256 101.584L204.208 102.583ZM211.355 97.9741C209.798 100.866 207.505 102.74 204.208 102.583L204.256 101.584C207.041 101.717 209.031 100.181 210.474 97.5L211.355 97.9741ZM204.456 96.6957C206.562 97.5308 208.765 97.6784 210.811 97.2478L211.017 98.2263C208.783 98.6964 206.38 98.5345 204.087 97.6253L204.456 96.6957ZM198.243 82.7148C196.067 88.2029 198.836 94.4675 204.456 96.6957L204.087 97.6253C197.972 95.2004 194.927 88.3648 197.313 82.3462L198.243 82.7148ZM205.015 76.4915C202.017 77.4175 199.472 79.6149 198.243 82.7148L197.313 82.3462C198.66 78.949 201.449 76.5464 204.72 75.5361L205.015 76.4915Z" fill="black" fill-opacity="0.2" style="fill:black;fill-opacity:0.2;"/>
<path fill-rule="evenodd" clip-rule="evenodd" d="M252.867 128.014C251.254 125.163 250.89 121.665 252.177 118.421C254.458 112.668 261.064 109.89 266.931 112.216C270.104 113.474 272.411 115.967 273.5 118.901C276.303 117.513 279.69 117.279 282.861 118.536C288.728 120.863 291.635 127.413 289.354 133.166C288.067 136.411 285.405 138.71 282.275 139.68C283.887 142.53 284.249 146.025 282.963 149.268C280.682 155.021 274.076 157.799 268.209 155.473C266.574 154.825 265.17 153.849 264.043 152.654C262.033 156.428 258.452 160.012 252.515 159.729C250.948 159.655 249.614 158.33 249.536 156.771C249.458 155.212 250.665 154.009 252.232 154.084C255.273 154.228 257.414 152.523 258.914 149.737C256.774 150.187 254.471 150.033 252.271 149.16C246.404 146.834 243.497 140.284 245.778 134.53C247.066 131.282 249.733 128.982 252.867 128.014Z" fill="white" style="fill:white;fill-opacity:1;"/>
<path d="M252.867 128.014L253.302 127.768L253.608 128.308L253.015 128.492L252.867 128.014ZM273.5 118.901L273.722 119.349L273.225 119.596L273.031 119.075L273.5 118.901ZM282.275 139.68L281.84 139.926L281.535 139.386L282.127 139.202L282.275 139.68ZM264.043 152.654L263.602 152.419L263.929 151.805L264.407 152.311L264.043 152.654ZM252.515 159.729L252.491 160.229L252.491 160.229L252.515 159.729ZM249.536 156.771L250.036 156.746L250.036 156.746L249.536 156.771ZM252.232 154.084L252.208 154.583L252.208 154.583L252.232 154.084ZM258.914 149.737L258.811 149.248L259.865 149.026L259.355 149.974L258.914 149.737ZM252.641 118.605C251.414 121.701 251.759 125.041 253.302 127.768L252.432 128.26C250.748 125.285 250.367 121.63 251.712 118.237L252.641 118.605ZM266.747 112.681C261.128 110.453 254.818 113.117 252.641 118.605L251.712 118.237C254.098 112.218 261 109.326 267.115 111.751L266.747 112.681ZM273.031 119.075C271.99 116.27 269.784 113.885 266.747 112.681L267.115 111.751C270.424 113.063 272.832 115.664 273.969 118.727L273.031 119.075ZM282.677 119.001C279.641 117.798 276.402 118.022 273.722 119.349L273.278 118.453C276.204 117.004 279.739 116.761 283.045 118.072L282.677 119.001ZM288.889 132.982C291.065 127.494 288.296 121.229 282.677 119.001L283.045 118.072C289.161 120.497 292.205 127.332 289.819 133.351L288.889 132.982ZM282.127 139.202C285.121 138.275 287.661 136.079 288.889 132.982L289.819 133.351C288.473 136.744 285.689 139.145 282.423 140.157L282.127 139.202ZM282.498 149.084C283.725 145.99 283.381 142.652 281.84 139.926L282.711 139.434C284.392 142.408 284.773 146.061 283.428 149.452L282.498 149.084ZM268.393 155.008C274.012 157.236 280.322 154.572 282.498 149.084L283.428 149.452C281.041 155.471 274.14 158.363 268.024 155.938L268.393 155.008ZM264.407 152.311C265.484 153.454 266.828 154.388 268.393 155.008L268.024 155.938C266.321 155.262 264.855 154.245 263.679 152.997L264.407 152.311ZM252.538 159.23C258.212 159.5 261.644 156.095 263.602 152.419L264.484 152.889C262.423 156.761 258.692 160.524 252.491 160.229L252.538 159.23ZM250.036 156.746C250.101 158.047 251.226 159.168 252.538 159.23L252.491 160.229C250.669 160.142 249.128 158.614 249.037 156.796L250.036 156.746ZM252.208 154.583C250.934 154.522 249.973 155.485 250.036 156.746L249.037 156.796C248.944 154.94 250.397 153.496 252.256 153.584L252.208 154.583ZM259.355 149.974C257.798 152.866 255.505 154.74 252.208 154.583L252.256 153.584C255.041 153.717 257.031 152.181 258.474 149.5L259.355 149.974ZM252.456 148.696C254.562 149.531 256.765 149.678 258.811 149.248L259.017 150.226C256.783 150.696 254.38 150.535 252.087 149.625L252.456 148.696ZM246.243 134.715C244.067 140.203 246.836 146.468 252.456 148.696L252.087 149.625C245.972 147.2 242.927 140.365 245.313 134.346L246.243 134.715ZM253.015 128.492C250.017 129.418 247.472 131.615 246.243 134.715L245.313 134.346C246.66 130.949 249.449 128.546 252.72 127.536L253.015 128.492Z" fill="black" fill-opacity="0.2" style="fill:black;fill-opacity:0.2;"/>
<path fill-rule="evenodd" clip-rule="evenodd" d="M224.304 219.293C224.412 216.019 225.924 212.845 228.712 210.745C233.656 207.023 240.742 208.093 244.538 213.135C246.591 215.861 247.262 219.191 246.663 222.263C249.779 222.538 252.792 224.103 254.844 226.828C258.64 231.871 257.709 238.976 252.765 242.699C249.976 244.798 246.506 245.374 243.33 244.571C243.22 247.843 241.709 251.016 238.922 253.114C233.978 256.837 226.892 255.767 223.095 250.725C222.038 249.32 221.347 247.755 221.008 246.148C217.326 248.323 212.402 249.517 207.481 246.182C206.183 245.302 205.734 243.477 206.48 242.106C207.226 240.734 208.883 240.336 210.181 241.216C212.701 242.923 215.418 242.583 218.15 240.987C216.088 240.256 214.203 238.924 212.779 237.034C208.983 231.991 209.914 224.886 214.858 221.163C217.65 219.061 221.124 218.487 224.304 219.293Z" fill="white" style="fill:white;fill-opacity:1;"/>
<path d="M224.304 219.293L224.804 219.31L224.783 219.931L224.181 219.778L224.304 219.293ZM246.663 222.263L246.619 222.761L246.066 222.712L246.173 222.168L246.663 222.263ZM243.33 244.571L242.83 244.555L242.851 243.935L243.452 244.086L243.33 244.571ZM221.008 246.148L220.753 245.718L221.353 245.364L221.497 246.045L221.008 246.148ZM207.481 246.182L207.201 246.596L207.201 246.596L207.481 246.182ZM206.48 242.106L206.919 242.345L206.919 242.345L206.48 242.106ZM210.181 241.216L209.901 241.63L209.901 241.63L210.181 241.216ZM218.15 240.987L218.317 240.515L219.332 240.875L218.402 241.418L218.15 240.987ZM229.012 211.145C226.352 213.148 224.907 216.178 224.804 219.31L223.804 219.277C223.917 215.86 225.495 212.541 228.411 210.346L229.012 211.145ZM244.139 213.436C240.503 208.606 233.729 207.594 229.012 211.145L228.411 210.346C233.583 206.452 240.981 207.579 244.938 212.834L244.139 213.436ZM246.173 222.168C246.745 219.231 246.104 216.046 244.139 213.436L244.938 212.834C247.078 215.677 247.779 219.152 247.154 222.359L246.173 222.168ZM254.444 227.129C252.48 224.52 249.598 223.024 246.619 222.761L246.707 221.765C249.96 222.052 253.104 223.686 255.243 226.527L254.444 227.129ZM252.464 242.299C257.181 238.748 258.08 231.958 254.444 227.129L255.243 226.527C259.2 231.783 258.238 239.204 253.066 243.098L252.464 242.299ZM243.452 244.086C246.49 244.854 249.803 244.303 252.464 242.299L253.066 243.098C250.149 245.294 246.522 245.893 243.207 245.056L243.452 244.086ZM238.621 252.715C241.28 250.712 242.725 247.684 242.83 244.555L243.829 244.588C243.715 248.003 242.137 251.319 239.223 253.513L238.621 252.715ZM223.495 250.424C227.131 255.253 233.905 256.266 238.621 252.715L239.223 253.513C234.05 257.408 226.653 256.281 222.696 251.025L223.495 250.424ZM221.497 246.045C221.821 247.582 222.482 249.079 223.495 250.424L222.696 251.025C221.594 249.561 220.873 247.929 220.519 246.252L221.497 246.045ZM207.762 245.768C212.464 248.955 217.167 247.836 220.753 245.718L221.262 246.579C217.485 248.81 212.341 250.079 207.201 246.596L207.762 245.768ZM206.919 242.345C206.298 243.488 206.675 245.032 207.762 245.768L207.201 246.596C205.691 245.573 205.171 243.466 206.041 241.867L206.919 242.345ZM209.901 241.63C208.845 240.914 207.523 241.235 206.919 242.345L206.041 241.867C206.929 240.234 208.921 239.758 210.462 240.802L209.901 241.63ZM218.402 241.418C215.567 243.075 212.633 243.481 209.901 241.63L210.462 240.802C212.77 242.366 215.269 242.091 217.897 240.555L218.402 241.418ZM213.179 236.733C214.541 238.543 216.345 239.817 218.317 240.515L217.983 241.458C215.831 240.695 213.864 239.305 212.38 237.335L213.179 236.733ZM215.159 221.563C210.442 225.114 209.543 231.904 213.179 236.733L212.38 237.335C208.423 232.079 209.385 224.658 214.557 220.764L215.159 221.563ZM224.181 219.778C221.14 219.007 217.823 219.557 215.159 221.563L214.557 220.764C217.477 218.566 221.109 217.967 224.427 218.809L224.181 219.778Z" fill="black" fill-opacity="0.2" style="fill:black;fill-opacity:0.2;"/>
<path fill-rule="evenodd" clip-rule="evenodd" d="M162.867 276.011C161.254 273.16 160.89 269.662 162.177 266.418C164.458 260.665 171.064 257.886 176.931 260.213C180.104 261.471 182.411 263.964 183.5 266.898C186.303 265.51 189.69 265.276 192.861 266.533C198.728 268.86 201.635 275.41 199.354 281.163C198.067 284.408 195.405 286.707 192.275 287.677C193.887 290.527 194.249 294.022 192.963 297.265C190.682 303.018 184.076 305.796 178.209 303.47C176.574 302.822 175.17 301.846 174.043 300.651C172.033 304.425 168.452 308.009 162.515 307.726C160.948 307.652 159.614 306.327 159.536 304.768C159.458 303.209 160.665 302.006 162.232 302.08C165.273 302.225 167.414 300.52 168.914 297.734C166.774 298.184 164.471 298.029 162.271 297.157C156.404 294.831 153.497 288.281 155.778 282.527C157.066 279.279 159.733 276.979 162.867 276.011Z" fill="white" style="fill:white;fill-opacity:1;"/>
<path d="M162.867 276.011L163.302 275.764L163.608 276.305L163.015 276.488L162.867 276.011ZM183.5 266.898L183.722 267.346L183.225 267.592L183.031 267.072L183.5 266.898ZM192.275 287.677L191.84 287.923L191.535 287.383L192.127 287.199L192.275 287.677ZM174.043 300.651L173.602 300.416L173.929 299.801L174.407 300.308L174.043 300.651ZM162.515 307.726L162.491 308.226L162.491 308.226L162.515 307.726ZM159.536 304.768L160.036 304.743L160.036 304.743L159.536 304.768ZM162.232 302.08L162.208 302.58L162.208 302.58L162.232 302.08ZM168.914 297.734L168.811 297.245L169.865 297.023L169.355 297.971L168.914 297.734ZM162.641 266.602C161.414 269.698 161.759 273.038 163.302 275.764L162.432 276.257C160.748 273.282 160.367 269.626 161.712 266.234L162.641 266.602ZM176.747 260.678C171.128 258.45 164.818 261.114 162.641 266.602L161.712 266.234C164.098 260.215 171 257.323 177.115 259.748L176.747 260.678ZM183.031 267.072C181.99 264.267 179.784 261.882 176.747 260.678L177.115 259.748C180.424 261.06 182.832 263.661 183.969 266.724L183.031 267.072ZM192.677 266.998C189.641 265.794 186.402 266.019 183.722 267.346L183.278 266.45C186.204 265 189.739 264.757 193.045 266.068L192.677 266.998ZM198.889 280.979C201.065 275.491 198.296 269.226 192.677 266.998L193.045 266.068C199.161 268.493 202.205 275.329 199.819 281.348L198.889 280.979ZM192.127 287.199C195.121 286.271 197.661 284.075 198.889 280.979L199.819 281.348C198.473 284.741 195.689 287.142 192.423 288.154L192.127 287.199ZM192.498 297.081C193.725 293.986 193.381 290.649 191.84 287.923L192.711 287.431C194.392 290.405 194.773 294.058 193.428 297.449L192.498 297.081ZM178.393 303.005C184.012 305.233 190.322 302.569 192.498 297.081L193.428 297.449C191.041 303.468 184.14 306.359 178.024 303.935L178.393 303.005ZM174.407 300.308C175.484 301.451 176.828 302.384 178.393 303.005L178.024 303.935C176.321 303.259 174.855 302.241 173.679 300.994L174.407 300.308ZM162.538 307.227C168.212 307.497 171.644 304.092 173.602 300.416L174.484 300.886C172.423 304.758 168.692 308.521 162.491 308.226L162.538 307.227ZM160.036 304.743C160.101 306.043 161.226 307.164 162.538 307.227L162.491 308.226C160.669 308.139 159.128 306.611 159.037 304.793L160.036 304.743ZM162.208 302.58C160.934 302.519 159.973 303.482 160.036 304.743L159.037 304.793C158.944 302.936 160.397 301.492 162.256 301.581L162.208 302.58ZM169.355 297.971C167.798 300.863 165.505 302.737 162.208 302.58L162.256 301.581C165.041 301.714 167.031 300.178 168.474 297.497L169.355 297.971ZM162.456 296.693C164.562 297.528 166.765 297.675 168.811 297.245L169.017 298.223C166.783 298.693 164.38 298.531 162.087 297.622L162.456 296.693ZM156.243 282.712C154.067 288.2 156.836 294.464 162.456 296.693L162.087 297.622C155.972 295.197 152.927 288.362 155.313 282.343L156.243 282.712ZM163.015 276.488C160.017 277.414 157.472 279.612 156.243 282.712L155.313 282.343C156.66 278.946 159.449 276.543 162.72 275.533L163.015 276.488Z" fill="black" fill-opacity="0.2" style="fill:black;fill-opacity:0.2;"/>
</g>
<mask id="path-39-outside-1_489_17839" maskUnits="userSpaceOnUse" x="27" y="76" width="216" height="217" fill="black">
<rect fill="white" x="27" y="76" width="216" height="217"/>
<path fill-rule="evenodd" clip-rule="evenodd" d="M90.4307 288.003C106.559 288.003 121.186 281.662 131.894 271.367C133.613 269.713 136.383 269.713 138.103 271.367C148.81 281.662 163.438 288.003 179.566 288.003C212.388 288.003 238.997 261.737 238.997 229.337C238.997 212.834 232.093 197.922 220.982 187.262C219.149 185.504 219.149 182.5 220.982 180.741C232.093 170.081 238.997 155.17 238.997 138.667C238.997 106.266 212.388 80 179.566 80C163.438 80 148.81 86.3417 138.103 96.6368C136.383 98.29 133.613 98.29 131.894 96.6368C121.186 86.3417 106.559 80 90.4307 80C57.608 80 31 106.266 31 138.667C31 155.17 37.9031 170.081 49.0145 180.741C50.8474 182.5 50.8474 185.504 49.0145 187.262C37.9031 197.922 31 212.834 31 229.337C31 261.737 57.608 288.003 90.4307 288.003Z"/>
</mask>
<path d="M138.103 96.6368L135.33 93.7534L138.103 96.6368ZM131.894 96.6368L129.122 99.5202L131.894 96.6368ZM220.982 187.262L218.213 190.148L220.982 187.262ZM49.0145 180.741L51.7837 177.855L49.0145 180.741ZM49.0145 187.262L51.7837 190.148L49.0145 187.262ZM131.894 271.367L129.122 268.483L131.894 271.367ZM138.103 271.367L140.875 268.483L138.103 271.367ZM129.122 268.483C119.134 278.086 105.491 284.003 90.4307 284.003V292.003C107.626 292.003 123.238 285.238 134.666 274.25L129.122 268.483ZM179.566 284.003C164.505 284.003 150.862 278.086 140.875 268.483L135.33 274.25C146.758 285.238 162.37 292.003 179.566 292.003V284.003ZM234.997 229.337C234.997 259.48 210.228 284.003 179.566 284.003V292.003C214.549 292.003 242.997 263.995 242.997 229.337H234.997ZM218.213 190.148C228.577 200.091 234.997 213.976 234.997 229.337H242.997C242.997 211.691 235.61 195.753 223.751 184.376L218.213 190.148ZM234.997 138.667C234.997 154.028 228.577 167.912 218.213 177.855L223.751 183.628C235.61 172.251 242.997 156.312 242.997 138.667H234.997ZM179.566 84C210.228 84 234.997 108.524 234.997 138.667H242.997C242.997 104.008 214.549 76 179.566 76V84ZM140.875 99.5202C150.862 89.9177 164.505 84 179.566 84V76C162.37 76 146.758 82.7657 135.33 93.7534L140.875 99.5202ZM90.4307 84C105.491 84 119.134 89.9177 129.122 99.5202L134.666 93.7534C123.238 82.7657 107.626 76 90.4307 76V84ZM35 138.667C35 108.524 59.7682 84 90.4307 84V76C55.4479 76 27 104.008 27 138.667H35ZM51.7837 177.855C41.42 167.912 35 154.028 35 138.667H27C27 156.312 34.3863 172.251 46.2453 183.628L51.7837 177.855ZM35 229.337C35 213.976 41.42 200.091 51.7837 190.148L46.2453 184.376C34.3863 195.753 27 211.691 27 229.337H35ZM90.4307 284.003C59.7682 284.003 35 259.48 35 229.337H27C27 263.995 55.4479 292.003 90.4307 292.003V284.003ZM135.33 93.7534C135.257 93.824 135.145 93.8767 134.998 93.8767C134.851 93.8767 134.74 93.824 134.666 93.7534L129.122 99.5202C132.389 102.662 137.607 102.662 140.875 99.5202L135.33 93.7534ZM223.751 184.376C223.672 184.3 223.607 184.176 223.607 184.002C223.607 183.828 223.672 183.703 223.751 183.628L218.213 177.855C214.739 181.188 214.739 186.816 218.213 190.148L223.751 184.376ZM46.2453 183.628C46.3242 183.703 46.3891 183.828 46.3891 184.002C46.3891 184.176 46.3242 184.3 46.2453 184.376L51.7837 190.148C55.2576 186.816 55.2576 181.188 51.7837 177.855L46.2453 183.628ZM134.666 274.25C134.74 274.179 134.851 274.127 134.998 274.127C135.145 274.127 135.257 274.179 135.33 274.25L140.875 268.483C137.607 265.341 132.389 265.341 129.122 268.483L134.666 274.25Z" fill="url(#paint0_radial_489_17839)" fill-opacity="0.5" style="" mask="url(#path-39-outside-1_489_17839)"/>
</g>
<g filter="url(#filter0_b_489_17839)">
<rect x="5" y="312" width="262" height="77" rx="8" fill="white" fill-opacity="0.5" style="fill:white;fill-opacity:0.5;"/>
</g>
<path fill-rule="evenodd" clip-rule="evenodd" d="M32 16C32 24.8366 24.8366 32 16 32C14.6188 32 13.2785 31.825 12 31.4959L12 368.497C13.2785 368.168 14.6188 367.993 16 367.993C24.8366 367.993 32 375.156 32 383.993C32 385.374 31.825 386.714 31.496 387.992H239.502C239.174 386.716 239 385.379 239 384.001C239 375.164 246.163 368.001 255 368.001C256.381 368.001 257.722 368.176 259 368.505L259 31.5037C257.722 31.8328 256.381 32.0078 255 32.0078C246.163 32.0078 239 24.8444 239 16.0078C239 14.6266 239.175 13.2863 239.504 12.0078H31.498C31.8257 13.2839 32 14.6216 32 16ZM0.0307375 384.992C0.546769 393.363 7.4992 399.993 16 399.993C16.3359 399.993 16.6693 399.982 17 399.962V399.992H253.993V399.969C254.326 399.99 254.662 400.001 255 400.001C263.501 400.001 270.453 393.371 270.969 385H271V384.032L271 384.001L271 383.969L271 16.0095V16.0078V16.0062V15.0075H270.969C270.453 6.6372 263.501 0.00824086 255.001 0.0078125L255 0.00781235L254.998 0.0078125H16.5048C16.3372 0.00261695 16.1689 0 16 0C15.8311 0 15.6628 0.00261695 15.4952 0.0078125H15.0078V0.0302664C6.96423 0.522409 0.526876 6.95725 0.0307763 14.9997H1.61727e-05V16V383.993L0 384.992H0.0307375Z" fill="#2C94CC" style="fill:#2C94CC;fill:color(display-p3 0.1707 0.5801 0.8012);fill-opacity:1;"/>
<path fill-rule="evenodd" clip-rule="evenodd" d="M15.0847 20.3409C14.7128 20.5089 14.2965 20.6029 13.8571 20.6029C12.2792 20.6029 11 19.3901 11 17.894C11 17.0512 11.4059 16.2983 12.0424 15.8015C11.4059 15.3046 11 14.5517 11 13.709C11 12.2129 12.2792 11 13.8571 11C14.7114 11 15.4781 11.3555 16.0016 11.9189C16.5252 11.3555 17.2919 11 18.1462 11C19.7241 11 21.0033 12.2129 21.0033 13.709C21.0033 14.5539 20.5953 15.3084 19.956 15.8053C20.5953 16.3021 21.0033 17.0566 21.0033 17.9015C21.0033 19.3977 19.7241 20.6105 18.1462 20.6105C17.5531 20.6105 17.0023 20.4392 16.5458 20.1459C16.6372 20.9069 16.9777 21.4819 17.6985 21.7205C18.0695 21.8433 18.2391 22.2213 18.0773 22.5647C17.9155 22.9081 17.4836 23.0869 17.1126 22.964C15.7039 22.4976 15.2027 21.3696 15.0847 20.3409Z" fill="white" style="fill:white;fill-opacity:1;"/>
<path fill-rule="evenodd" clip-rule="evenodd" d="M15.0847 379.659C14.7128 379.491 14.2965 379.397 13.8571 379.397C12.2792 379.397 11 380.61 11 382.106C11 382.949 11.4059 383.702 12.0424 384.199C11.4059 384.695 11 385.448 11 386.291C11 387.787 12.2792 389 13.8571 389C14.7114 389 15.4781 388.645 16.0016 388.081C16.5252 388.645 17.2919 389 18.1462 389C19.7241 389 21.0033 387.787 21.0033 386.291C21.0033 385.446 20.5953 384.692 19.956 384.195C20.5953 383.698 21.0033 382.943 21.0033 382.098C21.0033 380.602 19.7241 379.389 18.1462 379.389C17.5531 379.389 17.0023 379.561 16.5458 379.854C16.6372 379.093 16.9777 378.518 17.6985 378.28C18.0695 378.157 18.2391 377.779 18.0773 377.435C17.9155 377.092 17.4836 376.913 17.1126 377.036C15.7039 377.502 15.2027 378.63 15.0847 379.659Z" fill="white" style="fill:white;fill-opacity:1;"/>
<path fill-rule="evenodd" clip-rule="evenodd" d="M255.915 20.3409C256.287 20.5089 256.703 20.6029 257.143 20.6029C258.721 20.6029 260 19.3901 260 17.894C260 17.0512 259.594 16.2983 258.958 15.8015C259.594 15.3046 260 14.5517 260 13.709C260 12.2129 258.721 11 257.143 11C256.289 11 255.522 11.3555 254.998 11.9189C254.475 11.3555 253.708 11 252.854 11C251.276 11 249.997 12.2129 249.997 13.709C249.997 14.5539 250.405 15.3084 251.044 15.8053C250.405 16.3021 249.997 17.0566 249.997 17.9015C249.997 19.3977 251.276 20.6105 252.854 20.6105C253.447 20.6105 253.998 20.4392 254.454 20.1459C254.363 20.9069 254.022 21.4819 253.302 21.7205C252.931 21.8433 252.761 22.2213 252.923 22.5647C253.085 22.9081 253.516 23.0869 253.887 22.964C255.296 22.4976 255.797 21.3696 255.915 20.3409Z" fill="white" style="fill:white;fill-opacity:1;"/>
<path fill-rule="evenodd" clip-rule="evenodd" d="M255.915 379.659C256.287 379.491 256.703 379.397 257.143 379.397C258.721 379.397 260 380.61 260 382.106C260 382.949 259.594 383.702 258.958 384.199C259.594 384.695 260 385.448 260 386.291C260 387.787 258.721 389 257.143 389C256.289 389 255.522 388.645 254.998 388.081C254.475 388.645 253.708 389 252.854 389C251.276 389 249.997 387.787 249.997 386.291C249.997 385.446 250.405 384.692 251.044 384.195C250.405 383.698 249.997 382.943 249.997 382.098C249.997 380.602 251.276 379.389 252.854 379.389C253.447 379.389 253.998 379.561 254.454 379.854C254.363 379.093 254.022 378.518 253.302 378.28C252.931 378.157 252.761 377.779 252.923 377.435C253.085 377.092 253.516 376.913 253.887 377.036C255.296 377.502 255.797 378.63 255.915 379.659Z" fill="white" style="fill:white;fill-opacity:1;"/>
<defs>
<filter id="filter0_b_489_17839" x="-35" y="272" width="342" height="157" filterUnits="userSpaceOnUse" color-interpolation-filters="sRGB">
<feFlood flood-opacity="0" result="BackgroundImageFix"/>
<feGaussianBlur in="BackgroundImageFix" stdDeviation="20"/>
<feComposite in2="SourceAlpha" operator="in" result="effect1_backgroundBlur_489_17839"/>
<feBlend mode="normal" in="SourceGraphic" in2="effect1_backgroundBlur_489_17839" result="shape"/>
</filter>
<radialGradient id="paint0_radial_489_17839" cx="0" cy="0" r="1" gradientUnits="userSpaceOnUse" gradientTransform="translate(132.42 180.133) rotate(90) scale(125.918 125.914)">
<stop stop-color="white" style="stop-color:white;stop-opacity:1;"/>
<stop offset="1" stop-color="white" stop-opacity="0.5" style="stop-color:white;stop-opacity:0.5;"/>
</radialGradient>
</defs>
</svg>
