<svg width="16" height="14" viewBox="0 0 16 14" fill="none" xmlns="http://www.w3.org/2000/svg">
<path fill-rule="evenodd" clip-rule="evenodd" d="M12.352 2.5172C12.384 2.57159 12.44 2.61043 12.512 2.61043C14.432 2.61043 16 4.13319 16 5.99778V10.6127C16 12.4772 14.432 14 12.512 14H3.488C1.56 14 0 12.4772 0 10.6127V5.99778C0 4.13319 1.56 2.61043 3.488 2.61043C3.552 2.61043 3.616 2.57936 3.64 2.5172L3.688 2.42397C3.71558 2.36753 3.74389 2.30956 3.77263 2.25071C3.97729 1.83161 4.2037 1.36795 4.344 1.09545C4.712 0.396226 5.336 0.00776915 6.112 0H9.88C10.656 0.00776915 11.288 0.396226 11.656 1.09545C11.782 1.3402 11.974 1.73445 12.159 2.11442C12.1972 2.19279 12.2351 2.27056 12.272 2.34628L12.352 2.5172ZM11.7676 5.50065C11.7676 5.88911 12.0876 6.19988 12.4876 6.19988C12.8876 6.19988 13.2156 5.88911 13.2156 5.50065C13.2156 5.1122 12.8876 4.79366 12.4876 4.79366C12.0876 4.79366 11.7676 5.1122 11.7676 5.50065ZM6.6159 6.70467C6.9919 6.33952 7.4799 6.1453 7.9999 6.1453C8.5199 6.1453 9.00789 6.33952 9.37589 6.69691C9.74389 7.05429 9.9439 7.5282 9.9439 8.0332C9.93589 9.07426 9.0719 9.9211 7.9999 9.9211C7.4799 9.9211 6.9919 9.72687 6.6239 9.36949C6.2559 9.01211 6.0559 8.53819 6.0559 8.0332V8.02543C6.04789 7.53597 6.2479 7.06206 6.6159 6.70467ZM10.2156 10.1932C9.64761 10.7448 8.86361 11.0867 7.99961 11.0867C7.15961 11.0867 6.37561 10.7681 5.77561 10.1932C5.18361 9.61053 4.85561 8.84915 4.85561 8.03339C4.84761 7.2254 5.17561 6.46402 5.76761 5.88134C6.36761 5.29865 7.15961 4.98012 7.99961 4.98012C8.83961 4.98012 9.63161 5.29865 10.2236 5.87357C10.8156 6.45626 11.1436 7.2254 11.1436 8.03339C11.1356 8.88023 10.7836 9.6416 10.2156 10.1932Z" fill="#595959" style="fill:#595959;fill:color(display-p3 0.3477 0.3477 0.3477);fill-opacity:1;"/>
</svg>
