<svg width="225" height="97" viewBox="0 0 225 97" fill="none" xmlns="http://www.w3.org/2000/svg">
<path d="M97.4201 51.6319C97.9493 51.6319 98.3539 52.0366 98.3539 52.5658L98.385 59.6319C98.385 60.1611 97.9804 60.5657 97.4512 60.5657L89.14 60.628C88.6108 60.628 88.2061 61.0326 88.2061 61.5618V80.0831C88.2061 80.5811 87.7704 81.0169 87.2723 81.0169L78.9611 80.9235C78.4319 80.9235 78.0272 80.5189 78.0272 79.9897L77.965 61.5618C77.965 61.0326 77.5603 60.628 77.0311 60.628L68.7822 60.5035C68.253 60.5035 67.8483 60.0988 67.8483 59.5696L67.9106 52.5658C67.9106 52.0366 68.3153 51.6319 68.8444 51.6319H97.4201ZM113.106 72.6434C114.445 72.6434 116.032 72.2076 117.246 71.2115C117.589 70.9314 118.367 70.838 118.678 71.1493L123.565 75.5384C124.001 75.9119 124.032 76.4411 123.628 76.8146C120.919 79.4605 117.277 81.1103 113.168 81.1103C104.982 81.1103 98.2892 74.4177 98.2892 66.231C98.2892 57.9821 104.982 51.3207 113.168 51.3207C117.215 51.3207 120.826 52.9082 123.534 55.5541C123.939 55.9276 123.908 56.4568 123.534 56.8303L118.398 61.7486C118.056 62.0599 117.402 62.0599 117.059 61.7797C115.752 60.7525 114.227 60.3789 113.044 60.3789C110.99 60.3789 107.503 62.1533 107.503 66.5112C107.503 70.9003 110.678 72.6434 113.106 72.6434ZM145.675 81.048C145.145 81.048 144.741 80.6434 144.741 80.1142V71.2115C144.741 70.6824 144.336 70.2777 143.807 70.2777H138.857C138.328 70.2777 137.924 70.6824 137.924 71.2115V80.1142C137.924 80.6434 137.519 81.048 136.99 81.048H128.367C127.838 81.048 127.433 80.6434 127.433 80.1142V52.2545C127.433 51.7253 127.838 51.3207 128.367 51.3207H136.99C137.519 51.3207 137.924 51.7253 137.924 52.2545V61.4062C137.924 61.9354 138.328 62.34 138.857 62.34H143.807C144.336 62.34 144.741 61.9354 144.741 61.4062V52.2545C144.741 51.7253 145.145 51.3207 145.675 51.3207H154.297C154.826 51.3207 155.231 51.7253 155.231 52.2545V80.1142C155.231 80.6434 154.826 81.048 154.297 81.048H145.675ZM161.679 81.0792C161.15 81.0792 160.745 80.6745 160.745 80.1453V52.4101C160.745 51.881 161.15 51.4763 161.679 51.4763H170.146C170.675 51.4763 171.08 51.881 171.08 52.4101V80.1453C171.08 80.6745 170.675 81.0792 170.146 81.0792H161.679Z" fill="white" style="fill:white;fill-opacity:1;"/>
<path d="M5.9235 81.1414C5.39432 81.1414 4.64724 80.7368 4.64724 80.2076L4.67837 52.4413C4.67837 51.9432 5.14529 51.5074 5.67447 51.5074C18.5304 51.414 32.289 50.0133 32.289 66.6046C32.289 81.4527 22.3592 81.1725 5.9235 81.1414ZM16.0713 59.9743C15.511 59.9432 15.1374 60.3478 15.1374 60.877L15.1997 71.6785C15.1997 72.1765 15.4798 72.5501 15.9468 72.5812C20.5848 72.8302 22.2969 70.0909 22.2969 66.2622C22.2969 63.3673 21.6432 60.2544 16.0713 59.9743Z" fill="white" style="fill:white;fill-opacity:1;"/>
<path d="M5.9257 40.4574C5.39653 40.4574 4.64945 40.0527 4.64945 39.5236L4.68058 11.7573C4.68058 11.2592 5.1475 10.8234 5.67668 10.8234C18.5326 10.73 32.2912 9.32926 32.2912 25.9206C32.2912 40.7687 22.3614 40.4885 5.9257 40.4574ZM16.0735 19.2903C15.5132 19.2591 15.1396 19.6638 15.1396 20.193L15.2019 30.9944C15.2019 31.4925 15.482 31.866 15.949 31.8972C20.5871 32.1462 22.2991 29.4069 22.2991 25.5781C22.2991 22.6832 21.6454 19.5704 16.0735 19.2903ZM37.1409 40.4574C36.6117 40.4574 35.8646 40.0527 35.8646 39.5236L35.8958 11.7573C35.8958 11.2592 36.3627 10.8234 36.8919 10.8234C49.7478 10.73 63.5064 9.32926 63.5064 25.9206C63.5064 40.7687 53.5766 40.4885 37.1409 40.4574ZM47.2887 19.2903C46.7284 19.2591 46.3548 19.6638 46.3548 20.193L46.4171 30.9944C46.4171 31.4925 46.6972 31.866 47.1642 31.8972C51.8023 32.1462 53.5143 29.4069 53.5143 25.5781C53.5143 22.6832 52.8295 19.5704 47.2887 19.2903ZM74.083 39.7103C73.9896 40.0839 73.5538 40.3951 73.1802 40.3951L65.0558 40.364C64.3398 40.364 63.9352 39.7726 64.1842 39.1189L74.1763 11.5082C74.3009 11.1658 74.7055 10.8857 75.0479 10.8857L83.7638 10.7612C84.1373 10.7612 84.542 11.0724 84.6665 11.4148L94.0672 39.1811C94.2851 39.8348 93.8493 40.4263 93.1645 40.4263H84.9467C84.6043 40.4263 84.1996 40.1461 84.0751 39.8037L83.4837 38.2473C83.3591 37.9049 82.9545 37.6247 82.6121 37.6247L75.3592 37.5936C74.9857 37.5936 74.5499 37.9049 74.4565 38.2784L74.083 39.7103ZM79.935 26.0139C79.6549 25.1112 78.5031 25.0801 78.1607 25.9517L76.9779 29.189C76.7288 29.8116 77.1646 30.4341 77.8495 30.4341H80.0596C80.7444 30.4341 81.149 29.8738 80.9623 29.2201L79.935 26.0139ZM121.022 19.9751C121.022 22.8389 118.749 24.4575 117.131 24.8622C117.068 24.8933 117.068 25.1112 117.131 25.1424C119.092 25.6093 122.298 27.2279 122.298 32.5197C122.298 41.7959 106.111 40.4885 98.018 40.3329C97.52 40.3329 96.804 39.8971 96.804 39.399L96.8352 11.446C96.8352 10.9168 97.2398 10.5121 97.769 10.5121L107.979 10.481C112.368 10.481 121.022 11.1658 121.022 19.9751ZM111.279 19.8194C111.279 18.7611 110.874 17.049 107.232 16.8C106.703 16.7689 106.298 17.1424 106.298 17.7027V21.5626C106.298 22.1229 106.796 22.4965 107.325 22.4653C111.248 22.2474 111.279 20.6599 111.279 19.8194ZM111.279 31.2435C111.279 30.1851 110.874 28.4731 107.232 28.224C106.703 28.1929 106.298 28.5664 106.298 29.1268V32.9866C106.298 33.547 106.796 33.9205 107.325 33.8894C111.248 33.6715 111.279 32.0839 111.279 31.2435Z" fill="white" style="fill:white;fill-opacity:1;"/>
<path d="M168.967 39.2434C168.967 39.7726 168.562 40.1772 168.033 40.1772H160.469C159.94 40.1772 159.535 39.7726 159.535 39.2434L159.473 11.9752C159.473 11.446 159.878 11.0413 160.407 11.0413H168.625C168.749 11.0413 169.123 11.1969 169.216 11.2592L177.403 18.2319C178.056 18.7611 178.959 18.3564 178.959 17.4848L178.897 11.9752C178.897 11.4771 179.333 11.0413 179.831 11.0413H187.893C188.422 11.0413 188.827 11.446 188.827 11.9752L188.702 39.3057C188.702 39.8348 188.298 40.2395 187.768 40.2395H179.8C179.302 40.2395 178.897 39.8348 178.866 39.3368L178.679 32.7065C178.679 32.5197 178.492 32.1151 178.368 31.9905L170.555 25.5159C169.901 24.9556 169.029 25.3914 169.029 26.2318L168.967 39.2434ZM221.076 23.7416C221.605 23.7416 222.01 24.0217 222.01 24.5509C221.947 34.9788 220.578 40.3329 208.344 40.3329C197.014 40.3329 192.625 34.7609 192.625 23.5859C192.625 13.874 198.788 10.7612 207.784 10.7612C214.57 10.7612 221.045 12.7534 221.667 20.1619C221.729 20.7222 221.356 21.3758 220.796 21.3758H213.387C213.045 21.3758 212.422 20.8467 212.298 20.5354C211.613 18.73 208.905 18.014 207.193 18.014C204.204 18.014 202.274 19.6327 202.274 22.6521C202.274 26.8544 201.683 33.3291 207.255 33.3291C209.87 33.3291 212.204 32.9555 212.733 31.0256C212.92 30.3719 212.578 30.0917 211.924 30.0917H208.375C207.846 30.0917 207.442 29.6871 207.442 29.1579L207.379 24.7066C207.379 24.2085 207.815 23.7727 208.313 23.7727L221.076 23.7416Z" fill="white" style="fill:white;fill-opacity:1;"/>
<path d="M51.3742 74.1283C46.5303 78.3026 49.1065 84.3374 51 86.8331L55.1858 83.7031C51.3642 83.3474 50.3597 76.1722 51.3742 74.1283Z" fill="#25DA83" style="fill:#25DA83;fill:color(display-p3 0.1459 0.8542 0.5142);fill-opacity:1;"/>
<path fill-rule="evenodd" clip-rule="evenodd" d="M44.0953 78.7553C47.1947 78.6937 49.8097 76.6418 50.7104 73.8532C51.8361 76.2139 54.2769 77.819 57.0953 77.763C60.9605 77.6862 64.0722 74.5142 64.0455 70.6781C64.0265 67.944 62.4184 65.6105 60.0966 64.5233C61.8949 63.2314 63.0619 61.1262 63.0455 58.7705C63.0188 54.9344 59.8638 51.8869 55.9985 51.9637C53.5019 52.0134 51.3196 53.3544 50.0944 55.3317C48.8721 53.2709 46.5957 51.9121 43.9987 51.9637C40.1335 52.0406 37.0217 55.2126 37.0485 59.0487C37.0687 61.9544 38.8838 64.4077 41.4429 65.3934C38.8505 66.459 37.0278 69.0088 37.0483 71.9485C37.075 75.7846 40.23 78.8321 44.0953 78.7553Z" fill="#25DA83" style="fill:#25DA83;fill:color(display-p3 0.1459 0.8542 0.5142);fill-opacity:1;"/>
<path d="M140.374 32.4519C135.53 36.6262 138.106 42.6611 140 45.1568L144.186 42.0268C140.364 41.6711 139.36 34.4959 140.374 32.4519Z" fill="#25DA83" style="fill:#25DA83;fill:color(display-p3 0.1459 0.8542 0.5142);fill-opacity:1;"/>
<path fill-rule="evenodd" clip-rule="evenodd" d="M133.095 37.079C136.195 37.0174 138.81 34.9655 139.71 32.1769C140.836 34.5376 143.277 36.1428 146.095 36.0867C149.96 36.0099 153.072 32.8379 153.045 29.0018C153.026 26.2677 151.418 23.9343 149.097 22.847C150.895 21.5551 152.062 19.4499 152.045 17.0943C152.019 13.2582 148.864 10.2107 144.999 10.2875C142.502 10.3371 140.32 11.6781 139.094 13.6554C137.872 11.5947 135.596 10.2359 132.999 10.2875C129.133 10.3643 126.022 13.5363 126.048 17.3724C126.069 20.2782 127.884 22.7314 130.443 23.7171C127.85 24.7827 126.028 27.3325 126.048 30.2722C126.075 34.1084 129.23 37.1559 133.095 37.079Z" fill="#25DA83" style="fill:#25DA83;fill:color(display-p3 0.1459 0.8542 0.5142);fill-opacity:1;"/>
</svg>
