<svg width="56" height="56" viewBox="0 0 56 56" fill="none" xmlns="http://www.w3.org/2000/svg">
<circle cx="28" cy="28" r="28" fill="#2A2A2A" style="fill:#2A2A2A;fill:color(display-p3 0.1649 0.1649 0.1649);fill-opacity:1;"/>
<path d="M33.8336 17.5022C35.7653 17.5022 37.3313 19.0682 37.3313 21C37.3313 22.9317 35.7653 24.4977 33.8336 24.4977C32.851 24.4977 31.963 24.0926 31.3277 23.4403L24.9611 27.0798C25.0408 27.373 25.0834 27.6815 25.0834 27.9999C25.0834 28.3184 25.0408 28.6269 24.9611 28.9201L31.3286 32.5588C31.9639 31.907 32.8515 31.5023 33.8336 31.5023C35.7653 31.5023 37.3313 33.0682 37.3313 34.9999C37.3313 36.9317 35.7653 38.4977 33.8336 38.4977C31.9018 38.4977 30.3358 36.9317 30.3358 34.9999C30.3358 34.6815 30.3784 34.373 30.4582 34.0798L24.0915 30.4402C23.4561 31.0925 22.5682 31.4977 21.5856 31.4977C19.6539 31.4977 18.0879 29.9317 18.0879 27.9999C18.0879 26.0682 19.6539 24.5022 21.5856 24.5022C22.5678 24.5022 23.4553 24.907 24.0906 25.5588L30.4582 21.9201C30.3784 21.6269 30.3358 21.3184 30.3358 21C30.3358 19.0682 31.9018 17.5022 33.8336 17.5022Z" fill="white" style="fill:white;fill-opacity:1;"/>
</svg>
