<svg width="61" height="81" viewBox="0 0 61 81" fill="none" xmlns="http://www.w3.org/2000/svg">
<g opacity="0.5">
<path opacity="0.2" fill-rule="evenodd" clip-rule="evenodd" d="M50.7426 31.3519C56.2143 28.8367 60.0136 23.3074 60.0136 16.8908C60.0136 8.10544 52.8916 0.983521 44.1063 0.983521C37.9814 0.983521 32.665 4.44511 30.0068 9.51863C27.3486 4.44512 22.0322 0.983528 15.9073 0.983528C7.12198 0.983528 6.10352e-05 8.10545 6.10352e-05 16.8908C6.10352e-05 23.3074 3.7993 28.8367 9.271 31.3519C3.79927 33.867 0 39.3963 0 45.813C0 54.5983 7.12192 61.7202 15.9073 61.7202C20.955 61.7202 25.4537 59.3691 28.3678 55.7022C23.4846 64.922 28.334 75.9012 32.0735 81.0075L42.1141 73.6546C35.4192 72.8401 32.3279 63.2632 32.095 56.2426C35.0114 59.5985 39.3111 61.7202 44.1063 61.7202C52.8916 61.7202 60.0136 54.5983 60.0136 45.813C60.0136 39.3963 56.2143 33.867 50.7426 31.3519Z" fill="#747474" style="fill:#747474;fill:color(display-p3 0.4545 0.4545 0.4545);fill-opacity:1;"/>
<g opacity="0.4">
<ellipse cx="25.2443" cy="23.8458" rx="1.4289" ry="3.8104" fill="#838383" style="fill:#838383;fill:color(display-p3 0.5149 0.5149 0.5149);fill-opacity:1;"/>
<ellipse cx="34.7702" cy="23.8459" rx="1.4289" ry="3.8104" fill="#838383" style="fill:#838383;fill:color(display-p3 0.5149 0.5149 0.5149);fill-opacity:1;"/>
<path d="M35.2785 31H25.8599C25.214 31 24.9127 31.8004 25.3984 32.2263L30.3556 36.5733C30.6302 36.8142 31.0439 36.8033 31.3056 36.5484L35.767 32.2014C36.2168 31.7631 35.9065 31 35.2785 31Z" fill="#838383" style="fill:#838383;fill:color(display-p3 0.5149 0.5149 0.5149);fill-opacity:1;"/>
</g>
</g>
</svg>
