<svg width="25" height="25" viewBox="0 0 25 25" fill="none" xmlns="http://www.w3.org/2000/svg">
<path d="M4.68742 12.5C6.12566 12.5 7.29158 11.334 7.29158 9.89579C7.29158 8.45755 6.12566 7.29163 4.68742 7.29163C3.24918 7.29163 2.08325 8.45755 2.08325 9.89579C2.08325 11.334 3.24918 12.5 4.68742 12.5Z" fill="white" style="fill:white;fill-opacity:1;"/>
<path d="M9.37492 8.33333C10.8132 8.33333 11.9791 7.16741 11.9791 5.72917C11.9791 4.29093 10.8132 3.125 9.37492 3.125C7.93668 3.125 6.77075 4.29093 6.77075 5.72917C6.77075 7.16741 7.93668 8.33333 9.37492 8.33333Z" fill="white" style="fill:white;fill-opacity:1;"/>
<path d="M15.6249 8.33333C17.0632 8.33333 18.2291 7.16741 18.2291 5.72917C18.2291 4.29093 17.0632 3.125 15.6249 3.125C14.1867 3.125 13.0208 4.29093 13.0208 5.72917C13.0208 7.16741 14.1867 8.33333 15.6249 8.33333Z" fill="white" style="fill:white;fill-opacity:1;"/>
<path d="M20.3124 12.5C21.7507 12.5 22.9166 11.334 22.9166 9.89579C22.9166 8.45755 21.7507 7.29163 20.3124 7.29163C18.8742 7.29163 17.7083 8.45755 17.7083 9.89579C17.7083 11.334 18.8742 12.5 20.3124 12.5Z" fill="white" style="fill:white;fill-opacity:1;"/>
<path d="M18.0625 15.4792C17.1563 14.4167 16.3958 13.5104 15.4792 12.4479C15 11.8854 14.3854 11.3229 13.6563 11.0729C13.5417 11.0313 13.4271 11 13.3125 10.9792C13.0521 10.9375 12.7708 10.9375 12.5 10.9375C12.2292 10.9375 11.9479 10.9375 11.6771 10.9896C11.5625 11.0104 11.4479 11.0417 11.3333 11.0833C10.6042 11.3333 10 11.8958 9.51042 12.4583C8.60417 13.5208 7.84376 14.4271 6.92709 15.4896C5.56251 16.8542 3.88542 18.3646 4.19792 20.4792C4.50001 21.5417 5.26042 22.5937 6.62501 22.8958C7.38542 23.0521 9.81251 22.4375 12.3958 22.4375H12.5833C15.1667 22.4375 17.5938 23.0417 18.3542 22.8958C19.7188 22.5937 20.4792 21.5312 20.7813 20.4792C21.1042 18.3542 19.4271 16.8437 18.0625 15.4792Z" fill="white" style="fill:white;fill-opacity:1;"/>
</svg>
